<?xml version="1.0" encoding="utf-8"?>
<!-- Generator: Adobe Illustrator 24.3.0, SVG Export Plug-In . SVG Version: 6.00 Build 0)  -->
<svg version="1.1" id="Layer_1" xmlns="http://www.w3.org/2000/svg" xmlns:xlink="http://www.w3.org/1999/xlink" x="0px" y="0px"
	 viewBox="0 0 2000 2000" style="enable-background:new 0 0 2000 2000;" xml:space="preserve">
<style type="text/css">
	.st0{fill:none;stroke:#000000;stroke-width:2;stroke-miterlimit:10;}
	.st1{fill:none;stroke:#000000;stroke-miterlimit:10;}
</style>
<path id="XMLID_1_" d="M254.46,1036.88c-1.22,0.92-2.67,1.46-3.08,2.43c-5.21,12.32-10.45,24.64-15.19,37.15
	c-0.73,1.94,0.51,5.07,1.67,7.21c6.1,11.25,12.29,22.46,18.81,33.47c3.67,6.19,5.78,12.64,3.58,19.51
	c-3.28,10.21-7.31,20.18-11.4,31.3c-2.88-2.47-4.37-3.75-5.34-4.58c-3.2,4.1-5.94,8.39-9.48,11.88c-2.71,2.68-5.73,2.38-7.23-2.03
	c-6.37-18.72-13.55-37.21-18.98-56.21c-2.76-9.68-2.75-20.23-3.44-30.42c-1.87-27.68-4.05-55.37-4.95-83.09
	c-0.85-26.09,0.56-52.27-0.49-78.35c-0.92-22.73-3.93-45.37-5.91-68.06c-1.09-12.52-1.41-25.13-3.08-37.57
	c-2.02-15.07,0.12-29.7,2.82-44.37c0.61-3.32,1.18-6.86,2.77-9.75c4.82-8.83,5.62-18.24,4.89-27.92
	c-2.22-29.71,8.2-55.6,23.73-80.06c1.82-2.88,2.95-6.62,3.14-10.04c2-34.96,4.69-69.74,17.65-102.86c1.3-3.34,0.71-7.9-0.27-11.56
	c-4.28-15.9-9.17-31.87-6.56-48.44c2.61-16.56,6.58-32.94,10.49-49.26c2.03-8.45,5.24-16.62,7.88-24.93
	c3.34-10.5,10.1-18.13,19.67-23.33c9.14-4.96,19.23-8.36,26.18-16.8c1.14-1.39,3.14-2.37,4.94-2.88
	c11.84-3.38,20.8-11.06,30.1-18.66c17.82-14.58,39.35-22.82,59.66-33.12c11.4-5.78,22.53-12.13,34.09-17.58
	c11.65-5.5,15.42-15.16,17.46-26.98c2.11-12.21-2.06-23.55-2.91-35.32c-0.07-1.04-1.64-2.02-2.6-2.94c-4.03-3.9-8.64-7.35-12-11.76
	c-3.73-4.87-6.4-10.57-9.42-15.96c-6.99-12.5-4.4-25.26-0.26-37.74c2-6.03,5.58-6.45,14.85-3.27c0.63-9.97,0.79-19.97,1.99-29.83
	c2.27-18.79,5.83-37.23,20.84-50.87c10.13-9.21,22.58-13.54,35.59-16.37c26.99-5.86,51.48,0.03,73.19,16.88
	c9.15,7.1,13.67,17.64,15.97,28.45c2.77,13.05,3.82,26.47,5.37,39.76c0.46,3.93,0.07,7.96,0.07,12.18
	c12.21-3.96,14.72-1.84,18.01,10.27c5.19,19.08-3.13,34.15-13.3,48.67c-2.64,3.78-7.27,6.13-10.81,9.33
	c-1.23,1.11-2.48,2.68-2.81,4.24c-1.33,6.21-2,12.56-3.48,18.73c-3.55,14.83,4.74,35.3,18.24,42.37
	c19.27,10.09,38.86,19.58,58.31,29.33c17.61,8.83,34.54,18.68,48.7,32.66c0.61,0.6,1.24,1.47,1.97,1.6
	c16.34,2.82,26.01,17.37,40.82,23.02c16,6.1,24.05,19.15,28.02,35.02c5.21,20.82,10.96,41.56,14.87,62.62
	c3.13,16.83-0.87,33.56-6.03,49.72c-1.62,5.07-1.91,9.48,0.06,14.64c8.25,21.59,13.02,43.99,14.37,67.11
	c0.65,11.06,1.41,22.13,2.67,33.13c0.47,4.1,1.83,8.44,3.97,11.95c10.43,17.05,19.5,34.7,21.92,54.77
	c1.25,10.34,0.15,20.95,1.02,31.36c0.54,6.4,2.31,12.82,4.37,18.96c6.42,19.12,8.38,38.6,6.15,58.61
	c-1.98,17.77-3.27,35.63-5.63,53.35c-5.8,43.44-2.65,87.1-3.94,130.64c-0.74,25.14-3,50.25-4.87,75.35
	c-0.98,13.16-1,26.69-4.32,39.29c-5.02,19.05-12.54,37.44-19.1,56.39c-9.06-1.58-12.53-7.26-14.53-15.01
	c-1.83,1.63-3.16,2.82-5.83,5.21c-3.76-8.93-7.64-17.09-10.64-25.56c-3.27-9.25-2.5-18.02,3.29-26.73
	c6.71-10.09,12.27-20.95,18-31.66c1.21-2.27,2.08-5.71,1.25-7.92c-4.58-12.12-9.69-24.04-14.75-35.97c-0.43-1.02-1.8-1.65-3.02-2.72
	c-6.38,6.13-5.74,14.17-6.88,21.48c-1.41,9.09-3.94,17.69-11.38,23.5c-2.82,2.2-7.55,3.8-10.77,3.03c-2.4-0.58-5-5.27-5.38-8.39
	c-1.3-10.58-2.68-21.33-2.1-31.91c0.77-14.17,2.78-28.34,5.42-42.29c0.96-5.1,4.7-10.01,8.11-14.24
	c12.19-15.11,16.45-31.74,14.6-51.27c-2.83-29.88-15.95-56.29-25.09-84.08c-6.63-20.15-14.16-40.26-17.93-61
	c-2.56-14.07,0.78-29.2,1.26-43.86c0.08-2.46-0.28-5.41-1.59-7.36c-6.72-10.05-8.98-21.47-8.46-32.96
	c1.07-23.63-4.76-45.67-13.69-67.02c-4.01-9.58-9.99-18.31-14.74-27.61c-4.43-8.67-8.41-17.57-13.04-27.3
	c-0.9,5.1-1.18,9.52-2.5,13.6c-6.99,21.62-14.33,43.12-21.34,64.73c-1.23,3.79-2.09,7.9-2.1,11.87
	c-0.05,29.54-0.12,59.08,0.55,88.61c0.11,4.86,3.32,9.96,6.01,14.39c7.36,12.16,14.47,24.54,13.66,39.22
	c-0.52,9.26-3.25,18.38-4.76,27.61c-0.46,2.8-0.81,5.91-0.07,8.57c8.82,31.97,14.55,64.18,14.58,97.65
	c0.01,15.83,5.5,31.69,8.76,47.48c7.04,34.13,15.44,68.05,20.95,102.42c3.36,20.94,3.55,42.6,3.06,63.88
	c-0.78,33.91-2.39,67.86-5.36,101.64c-3.05,34.76-9.24,69.25-11.97,104.02c-1.73,21.98,1.62,43.66,10.68,64.74
	c10.86,25.26,18.58,51.92,16.88,80c-1,16.56-3.27,33.06-5.42,49.53c-2.59,19.81-5.75,39.56-8.52,59.35
	c-2.54,18.11-5.32,36.2-7.23,54.38c-2.03,19.28-5.29,39.1,1.22,57.76c4.88,14,11.35,27.26,11.74,42.49c0.06,2.44,2.42,4.9,3.93,7.2
	c17.23,26.22,34.06,52.66,46.21,81.78c1.78,4.27,4.89,7.98,7.39,11.95c4.89,7.77,4.16,12.37-2.38,18.55
	c-5.51,5.21-10.68,10.78-16.03,16.16c-0.9,0.91-1.81,2.12-2.93,2.44c-4.83,1.37-8.25,4.36-11.69,7.96
	c-4.42,4.62-10.01,3.31-15.48,1.06c-1.71-0.7-4.7-0.79-5.92,0.24c-13.24,11.21-26.6,11-38.05-2.12
	c-9.2-10.55-17.8-21.73-25.57-33.37c-3.5-5.24-6.32-12.39-5.92-18.44c0.68-10.32-4.73-16.49-10.43-23.44
	c-6.87-8.38-14.21-16.82-14.83-28.44c-0.56-10.48,2.36-20.38,7.52-29.31c3.75-6.5,4.1-12.29,0.06-18.46
	c-4.45-6.79-4.42-13.99-2.19-21.5c3.66-12.3,7.1-24.79,4.97-37.71c-2.93-17.82-6.09-35.65-10.19-53.22
	c-4.44-19.03-9.1-38.12-15.5-56.54c-5.57-16.04-13.93-31.09-20.67-46.74c-9.3-21.62-14.86-43.9-11.38-67.78
	c3.31-22.73,6.3-45.51,9.09-68.31c0.4-3.24-0.57-6.91-1.8-10.03c-6.65-16.78-14.6-33.13-20.06-50.28
	c-3.49-10.98-3.72-23.05-4.93-34.68c-1.88-18.01-3.35-36.05-4.99-54.08c-1.35-14.85-2.16-29.78-4.18-44.54
	c-3.14-22.96-6.46-45.94-10.9-68.68c-5.41-27.74-12.12-55.22-18.12-82.85c-0.71-3.29-0.5-6.77-0.74-10.66
	c-2.19,11.42-4.07,22.39-6.42,33.25c-5.73,26.61-12.38,53.04-17.32,79.78c-3.89,21.1-6.11,42.53-8.48,63.87
	c-2.47,22.23-4.22,44.55-6.3,66.82c-1.37,14.64-1.21,29.65-4.55,43.83c-3.81,16.21-9.29,32.41-16.76,47.25
	c-6.2,12.33-6.95,23.4-4.22,36.5c5.12,24.63,8.1,49.7,7.23,74.95c-0.64,18.4-7.49,35.29-14.66,51.96
	c-7.15,16.62-16.42,32.6-21.33,49.84c-8.25,28.96-13.47,58.77-20.57,88.08c-4.23,17.48-2.08,34.2,3.37,50.85
	c2.17,6.62,2.02,12.8-1.8,18.94c-3.91,6.28-4.41,12.34-0.73,19.69c3.93,7.84,5.89,16.8,7.8,25.47c1.79,8.08-2.57,15.04-6.68,21.43
	c-4.25,6.61-9.87,12.31-14.38,18.77c-2.02,2.9-4.02,6.7-3.94,10.04c0.38,16.44-6.99,28.94-18.33,39.93
	c-3.14,3.04-4.93,7.44-7.96,10.63c-4.94,5.19-9.74,11.01-15.79,14.52c-8.79,5.1-20.82,4.92-29.68-7.55
	c-2.71,1.09-5.36,2.53-8.19,3.17c-2.38,0.53-5.53,1.06-7.37-0.05c-6.65-3.99-13.23-8.26-19.18-13.21
	c-5.63-4.69-10.25-10.57-15.66-15.56c-5.19-4.79-6.74-10.04-3.21-16.51c17.33-31.79,32.15-65.02,53.92-94.25
	c4.57-6.13,6.45-12.97,6.09-20.37c-0.32-6.72,1.7-12.41,5.16-18.08c8.1-13.29,9.04-28.3,8.55-43.26
	c-0.37-11.24-1.95-22.46-3.34-33.65c-2.56-20.69-5.28-41.36-8.09-62.01c-2.75-20.22-5.82-40.4-8.52-60.63
	c-1.49-11.19-3.61-22.45-3.48-33.65c0.15-13.12,0.8-26.66,4.18-39.23c5.73-21.31,13.78-42.01,20.86-62.96
	c0.34-1.01,1.15-1.97,1.18-2.96c0.43-14.49,1.85-29.06,0.86-43.45c-1.32-19.08-4.71-38-6.91-57.03
	c-2.25-19.46-4.28-38.94-6.16-58.44c-1.19-12.31-2.37-24.65-2.78-37c-0.76-23.29-2.23-46.67-1.06-69.89
	c1.28-25.45,3.75-51.04,8.36-76.08c6.27-34.06,15.15-67.63,22.69-101.46c1.24-5.57,2.07-11.4,1.91-17.08
	c-0.9-32.3,5.09-63.51,13.78-94.42c1.27-4.5,0.6-10.13-0.84-14.71c-7.68-24.45-1.84-46.03,12.21-66.5c2.69-3.91,4.2-9.42,4.26-14.22
	c0.4-29.11,0.57-58.24,0-87.35c-0.14-7.01-2.81-14.16-5.24-20.92c-7.47-20.78-17.18-40.84-19.52-63.21
	c-0.1-0.96-0.66-1.87-1.07-2.98c-6.11,12.4-11.3,25.1-18.33,36.68c-11.61,19.12-18.33,39.76-22.03,61.53
	c-0.99,5.83-0.74,11.9-0.81,17.87c-0.17,13.94-1.19,27.34-9.42,39.73c-2.49,3.75-0.03,11,0.65,16.59
	c2.16,17.76,2.07,35.38-3.86,52.46c-9.77,28.16-19.64,56.28-29.88,84.27c-5.99,16.37-9.45,33.22-9.93,50.5
	c-0.39,14.19,3.74,27.43,13.12,38.51c10.44,12.33,14.4,26.91,14.81,42.6c0.34,13.2,0.21,26.42,0,39.63
	c-0.06,4.01-0.75,8.08-1.74,11.97c-1.8,7.13-6.95,9.18-13.13,5.1c-9.77-6.45-12.5-16.64-14.21-27.47
	C259.68,1049.97,260.27,1042.55,254.46,1036.88z
	
	
	 M356.28,531.86c2.99,2.62,6.46,5.21,9.18,8.09c11.01,11.62,23.2,21.37,39.04,25.55
	c14.09,3.71,27.97,1.49,41.65-2.13c28.89-7.64,50.31-23.37,55.56-54.74c3.05-18.23,5.47-36.64,6.69-55.07
	c0.54-8.17-0.52-17.74-4.42-24.66c-9.33-16.55-25.05-24.79-44.03-25.09c-28.38-0.44-54.61,8.13-79.26,21.53
	c-23.75,12.9-41.39,31.24-48.98,58c-1.53,5.41-1.58,10.15,1.98,14.9c4.6,6.13,8.76,12.59,13.04,18.95
	c3.28,4.88,6.44,9.84,9.65,14.76c-0.29,2.72-1.06,5.48-0.8,8.14c1.1,11.21,2.37,22.42,3.86,33.58c1.15,8.58,2.73,17.1,4.13,25.65
	c0.52-14,3.96-27.1,9.84-39.5c2.02-4.25,1.44-6.24-2-9.56C365.83,544.86,361.18,538.01,356.28,531.86z M386.66,758.61
	c-1.2,13.25-1.13,13.11,10.68,18.47c9.75,4.42,19.1,9.51,25.22,18.85c11.75,17.93,18.2,36.34,5.18,56.55
	c-5.02,7.78-9.98,15.6-15.05,23.53c5.18,9.59,10.87,19.6,16.06,29.86c15.97,31.58,31.68,63.29,47.64,94.87
	c4.17,8.24,9.23,16.01,17.62,20.64c20.1,11.07,43,3.7,54.14-17.75c5.49-10.58,9.58-21.89,15.12-32.44
	c16.25-30.97,32.96-61.71,49.29-92.65c0.8-1.52,0.44-4.44-0.52-5.98c-4.94-7.92-10.56-15.42-15.36-23.42
	c-7-11.63-6.14-23.86-1.94-36.3c6.38-18.85,20.11-30.01,37.73-37.59c8.2-3.53,9.37-7.47,6.6-15.39
	c-8.02,6.86-15.9,14.74-24.91,20.97c-7.97,5.51-12.7,2.3-12.86-7.43c-0.15-8.98,1.6-18.43-0.62-26.85
	c-3.33-12.62-0.56-23.98,2.45-35.74c0.55-2.15,0.71-4.47,0.64-6.7c-0.17-5.7-1.37-11.49-0.67-17.06c1-7.84,1.55-15.32-0.25-23.23
	c-2.2-9.67-5.07-19.75-1.22-29.57c1.81-4.61,1.6-8.3-0.19-12.68c-4.59-11.24-5.33-22.4,2.56-32.75c3.76-4.93,7.62-9.78,11.28-14.46
	c-2.91-1.04-8.14-3.41-13.62-4.76c-11.71-2.89-23.98-4.08-35.26-8.08c-24.21-8.6-41.45-24.29-45.06-51.33
	c-2.34-17.5-4.36-35.05-6.49-52.58c-1.59-13.05-0.03-25.32,7.74-36.55c1.9-2.74,2.49-7.13,2.1-10.58
	c-2.31-20.28-3.61-40.37,4.27-59.92c5.41-13.42,10.74-26.87,15.86-40.4c4-10.57,7.62-21.28,11.41-31.93
	c-0.34-0.71-0.68-1.42-1.01-2.13c-28.27,30.09-56.38,29.74-84.54,0.45c0.24,2.79,0.7,4.57,1.33,6.29
	c6.11,16.56,11.33,33.53,18.59,49.58c11.82,26.13,15.8,52.83,10.34,80.99c-0.36,1.84,0.17,4.51,1.36,5.87
	c7.98,9.14,10.42,20.24,9.65,31.6c-1.24,18.45-3.76,36.82-5.9,55.2c-1.32,11.35-4.21,22.37-11.56,31.36
	c-14.62,17.88-34.57,26.41-56.65,30.63c-9.82,1.88-20.37,1.03-28.74,8.26c3.25,2.87,6.6,5.5,9.56,8.51
	c8.16,8.3,12.37,18.07,8.47,29.63c-2.81,8.33-5.14,16.21-1.31,24.99c1.33,3.06,1,7.39,0.09,10.79c-4.02,15.04-3.37,30.15-2.64,45.49
	c0.41,8.42,0.12,16.62,2.46,24.95c1.7,6.02,1.45,12.69,1.41,19.07c-0.03,3.51-1.96,6.98-2.12,10.51
	c-0.36,8.07,0.01,16.16-0.24,24.24c-0.27,8.57-4.38,10.89-12,6.91c-2.25-1.18-4.47-2.59-6.34-4.3
	C399.83,771.13,393.4,764.96,386.66,758.61z M761.52,1893.28c0.82-0.03,1.65-0.06,2.47-0.09c-0.35-2.94,0.03-6.24-1.2-8.75
	c-2.33-4.76-6.42-8.75-8.33-13.62c-11.13-28.45-27.64-53.86-44.55-78.99c-4.94-7.33-6.81-14.72-7.35-23.23
	c-0.34-5.31-2.48-10.56-4.25-15.69c-2.13-6.19-4.73-12.21-7.12-18.31c-0.69-1.76-1.04-3.76-2.09-5.26
	c-13.93-19.73-18.83-42.21-19.65-65.77c-0.51-14.69-0.09-29.4-0.19-44.1c-0.37-51.15-0.78-102.3-1.18-153.46
	c-0.01-1.02-0.09-2.04-0.14-3.16c-1.25,0.44-2.21,0.78-3.89,1.37c5.01-11.73,9.62-22.68,14.34-33.57
	c5.78-13.33,8.48-27.04,7.68-41.72c-0.63-11.59,0.22-23.3,0.91-34.93c0.48-8.18,1.78-16.32,2.72-24.55
	c-3.47-0.67-6.42-0.98-9.2-1.82c-15.81-4.75-28.84-21.03-30.45-37.77c-0.64-6.7-1.43-13.39-2.19-20.35
	c-3.56,0.18-6.44,0.32-9.32,0.46c0.59,0.41,1.18,0.83,1.77,1.24c-4.16,14.86-7.1,30.21-12.75,44.49
	c-11.64,29.41-36.72,41.66-67.51,34.22c4.64,28.6,17.62,53.49,32.9,77.07c8.19,12.63,19.23,23.38,28.45,35.39
	c9.8,12.77,18.17,26.75,20.4,42.85c3.76,27.19,7.81,54.51,8.67,81.88c1.2,38.23-0.15,76.55-0.97,114.82
	c-0.31,14.46-6.11,27.11-15.42,38.43c-7.23,8.8-10.42,19.07-4.38,30.06c4.45,8.08,4.62,15.18,0.03,23.89
	c-11.95,22.69-6.7,44.13,12.8,57.85c0.68-1.17,1.35-2.32,2.02-3.48c1.2,4.32,0.98,8.51,1.25,12.67
	c0.82,12.52,3.23,24.46,11.89,34.37c5.69,6.52,10.94,13.43,16.39,20.16c1.88,2.32,3.62,4.76,5.7,6.88
	c5.49,5.59,12.29,7.4,19.94,6.28c7.52-1.1,12.21-8.59,9.23-15.47c-2.96-6.84-6.53-13.42-9.87-20.09c-1.77-3.54-3.62-7.04-5.44-10.56
	c0.53-0.26,1.05-0.52,1.58-0.78c8.64,10,16.13,20.67,19.94,33.64c1.55,5.26,9.32,8.84,13.96,6.79c4.18-1.84,5.2-6.94,2.12-12.66
	c-4.35-8.08-9.06-15.96-13.46-24.02c-1.43-2.62-2.38-5.5-3.55-8.26c10.46,9,17.15,20.26,23.29,31.94c0.84,1.6,2.99,2.51,4.53,3.74
	c1.21-2.22,3.05-4.34,3.42-6.69c0.29-1.83-1-4.1-2.05-5.92c-3.3-5.72-6.93-11.25-10.2-16.99c-2.29-4.01-4.19-8.24-6.27-12.37
	c0.88-0.5,1.76-1,2.64-1.5c7.41,11.23,14.82,22.47,22.4,33.96c0.05-0.01,0.79,0.05,1.24-0.29c4.79-3.57,4.56-7.37-0.5-14.32
	c-5.17-7.1-10.16-14.33-15.24-21.5c0.5-0.37,0.99-0.74,1.49-1.1C749.61,1872.76,754.42,1884.03,761.52,1893.28z M358.75,1462.17
	c-0.39,0.94-0.66,1.3-0.66,1.66c-0.07,51.8-0.19,103.6-0.14,155.4c0.03,24.99,1.77,50.38-5.49,74.45
	c-6.02,19.96-15.24,39.04-24,58.07c-3.22,7.01-5.05,13.65-5.41,21.29c-0.25,5.27-1.69,11.33-4.73,15.48
	c-22.15,30.26-37.28,64.49-55.47,96.97c-2.37,4.22-1.78,5.28,1.98,7.63c7.35-9.7,12.58-21.16,24.28-27.11
	c-1.31,3.07-3.08,5.83-4.94,8.52c-4.36,6.31-9.03,12.42-13.09,18.92c-3.34,5.33-1.76,8.56,4.17,10.09
	c6.71-11.86,13.38-23.75,23.85-32.87c-3.73,8.51-8.56,16.27-13.08,24.21c-1.99,3.48-4.07,7.2-4.73,11.05
	c-0.39,2.26,1.93,4.99,3.03,7.51c1.68-1.48,3.98-2.64,4.93-4.5c5.95-11.67,12.63-22.79,22.59-31.77c-1.7,5.19-4.17,9.96-6.77,14.65
	c-3.51,6.34-7.73,12.39-10.43,19.05c-1.19,2.93-0.49,8.02,1.46,10.35c1.37,1.63,6.86,1.3,9.54-0.07c2.76-1.4,5.25-4.81,6.28-7.87
	c4.21-12.47,11.55-22.74,20.7-31.97c-0.33,2.15-1.13,4.04-2.04,5.87c-4.18,8.38-8.5,16.7-12.57,25.14
	c-3.91,8.1,0.68,15.67,9.59,16.88c11.16,1.52,18.03-4.79,24.27-12.51c4.37-5.41,8.57-10.95,12.97-16.33
	c7.07-8.65,13.64-17.46,14.36-29.29c0.41-6.71,1.38-13.39,1.89-18.07c3.24-1.81,5.24-2.37,6.38-3.68c3.07-3.54,5.87-7.32,8.59-11.14
	c5.49-7.7,9.27-16.09,7-25.73c-1.41-5.97-3.04-12.25-6.24-17.34c-5.62-8.93-4.6-16.7-0.02-25.63c2.17-4.24,1.92-10.14,1.51-15.19
	c-0.58-7.14-4.43-12.82-9.19-18.41c-11.76-13.8-13.53-31.17-13.77-48.23c-0.75-53-0.9-105.99,4.82-158.83
	c2.55-23.56,8.76-45.57,23.45-64.51c8.62-11.12,18.92-21.11,26.38-32.92c10.18-16.12,19.01-33.19,27.18-50.44
	c4.49-9.49,6.45-20.17,9.19-29.11c-9.46,0.21-17.95,2-25.68,0.3c-26.4-5.81-40.35-24.75-47.4-49.36
	c-3.02-10.54-4.29-21.58-6.42-32.7c-2.4,0-5.05,0-8.06,0c-2.26,28.47-7.94,54.31-42.45,59.69c3.19,22.96,7.08,45.69,3.75,68.8
	c-0.41,2.87-0.14,6.12,0.8,8.86c4.89,14.27,9.96,28.49,15.28,42.61c2.29,6.06,5.33,11.84,8.03,17.75c-0.47,0.22-0.94,0.44-1.41,0.66
	C361.57,1466.54,360.34,1464.63,358.75,1462.17z M585.14,177.83c0.53-19.45-0.67-38.09-4.5-56.5c-2.75-13.23-6.31-26.68-18.06-34.91
	c-21.2-14.85-44.34-20.1-70.18-13.53c-25.12,6.39-41.84,20.18-46.45,46.47c-3.02,17.21-5.91,34.45-3.29,52.05
	c0.28,1.9-0.2,3.92-0.44,7.6c-3.53-3.82-5.7-6.41-8.13-8.75c-4.58-4.41-7.78-3.82-8.96,2.15c-1.24,6.22-2.34,12.72-1.86,18.97
	c1.03,13.38,10.09,23.14,17.13,33.68c1.91,2.85,4.75,2.57,6.66-0.7c1.09-1.86,2.21-3.7,3.32-5.55c1.21,4.54,1.49,8.59,1.16,12.58
	c-1.19,14.11,2.17,26.1,14.36,34.8c9.01,6.44,17.38,13.79,26.43,20.16c14.15,9.96,27.91,9.91,42.08-0.05
	c8.19-5.76,16.33-11.72,23.75-18.42c6.52-5.89,14.75-11.09,15.86-20.95c0.76-6.75,0.38-13.64,0.48-20.46
	c0.04-2.54,0.01-5.07,0.01-7.61c2.09,0.75,2.74,1.54,3.17,2.44c3.45,7.07,6.14,7.39,10.51,0.88c3.2-4.77,5.63-10.08,9-14.71
	c8.13-11.16,7.45-23.12,3.78-35.39c-1.61-5.4-3.88-6.06-8.22-2.38C589.95,172.08,587.67,175.1,585.14,177.83z M540.33,1169.37
	c1.47-12.35,2.21-24.96,4.6-37.25c3.68-18.96,7.34-38.07,13.14-56.44c5.75-18.22,14.46-35.48,21.3-53.39
	c10.23-26.79,14.65-55.04,19.15-83.14c3.32-20.73,8.56-40.27,22.24-56.85c5.81-7.03,13.2-7.27,16.33,1.13
	c2.83,7.59,5.21,16.27,4.41,24.12c-2.2,21.54-5.3,43.08-9.61,64.31c-9.65,47.48-28.99,91.58-48.84,135.46
	c-1.32,2.91-1.73,7.22-0.58,10.09c6.96,17.37,14,34.75,21.95,51.68c10.78,22.94,22.83,45.33,29.15,70.09
	c1.94,7.61,2.64,15.53,4.63,23.12c0.44,1.69,3.82,3.37,5.99,3.59c1.36,0.14,4.24-2.39,4.32-3.84c1.34-23.03,8.29-44.72,15.88-66.17
	c11.09-31.37,21.68-62.66,23.43-96.42c1.47-28.3,0.75-56.25-5.83-83.87c-0.48-2-2.3-4.16-4.09-5.3
	c-13.8-8.79-21.71-21.83-25.01-37.22c-4.23-19.73-7.95-39.66-10.18-59.7c-1.77-15.97-0.38-32.3,9.8-45.87
	c4.4-5.87,3.2-10.5,0.5-16.18c-5.81,4.64-11.32,8.94-16.72,13.38c-8.46,6.97-18.57,12.05-23.33,23.04
	c-3.72,8.58-8.72,16.58-12.96,24.94c-14.37,28.31-28.98,56.52-42.86,85.07c-7.35,15.12-16.07,28.08-33.38,32.85
	c-1.55,0.43-3.45,2.6-3.69,4.18c-0.85,5.68-1.11,11.45-1.49,17.19c-1.26,18.8,3.38,36.76,7.62,54.82
	C531.09,1127.7,535.66,1148.65,540.33,1169.37z M485.61,1169.13c0.48-0.65,1.03-1.07,1.14-1.59c4.3-19.3,8.31-38.67,12.89-57.9
	c5.8-24.37,10.67-48.73,6.71-73.99c-0.51-3.25-1.28-4.66-4.62-5.53c-11.25-2.91-20.02-9.51-25.63-19.73
	c-4.09-7.45-7.42-15.32-11.31-22.88c-13.24-25.78-26.38-51.62-39.95-77.23c-7.99-15.07-13.4-31.89-29.43-41.6
	c-7.86-4.76-14.64-11.31-21.98-17.12c-3.24,6.1-3.85,10.86,0.69,16.61c6.91,8.75,9.12,19.64,9.49,30.65
	c0.82,24.5-4.02,48.37-9.54,71.99c-3.63,15.53-10.46,29.76-24.62,39.14c-2.37,1.57-4.94,4.47-5.35,7.09
	c-2.22,14.06-3.82,28.21-5.56,42.35c-2.88,23.33-1.32,46.71,3.8,69.34c5.47,24.19,13.69,47.79,21.18,71.5
	c6.09,19.29,12.31,38.49,13.75,58.84c0.24,3.39-0.45,7.04,4.89,7.22c5.13,0.17,6.68-2.48,7.11-6.99c0.49-5.06,1.06-10.16,2.18-15.11
	c5.99-26.66,18.77-50.6,30.29-75.06c7.26-15.41,13.72-31.19,20.89-46.64c3.28-7.06,1.76-13.04-1.09-19.88
	c-12.44-29.87-24.91-59.77-36.15-90.1c-9.12-24.59-14.2-50.36-17.2-76.41c-1.51-13.1-2.31-26.31-2.64-39.49
	c-0.11-4.44,1.46-9.34,3.58-13.32c4.47-8.4,10.69-7.82,16.89-0.46c15.19,18.04,19.02,39.94,22.68,62.08
	c4.3,26.04,8.73,52.11,18.1,76.92c6.77,17.94,15.01,35.33,21.5,53.36C479.16,1105.38,482.88,1137.05,485.61,1169.13z M571.83,403.08
	c-6.18,0.74-11.34,0.93-16.31,2.01c-16.79,3.67-35.61,16.36-37.7,38.33c-0.54,5.65,0.06,11.49,0.8,17.16
	c2.39,18.33,4.63,36.7,7.85,54.89c1.75,9.89,6.1,18.97,13.61,26.28c12,11.68,26.75,17.88,42.54,22.2
	c23.11,6.32,44.73,4.14,64.14-11.08c20.55-16.1,34.94-37.22,48.37-59.13c0.7-1.14,0.98-2.87,0.74-4.2
	c-2.52-13.92-8.03-26.68-17.26-37.32C650.23,419.5,612.08,407.97,571.83,403.08z M698.67,495.94c-5.63,7.99-10.93,15.2-15.84,22.66
	c-1.39,2.11-2.32,4.98-2.31,7.5c0.16,24.19,3.83,48.02,10.04,71.26c5.2,19.46,12.09,38.51,19,57.47
	c5.07,13.93,10.52,27.86,17.36,40.97c7.94,15.22,19.95,27.4,33.72,38.38c0.9-1.78,1.58-2.83,1.99-3.98
	c14.34-40.85,21.98-82.58,17.35-126.11c-1.71-16.04-5.64-31.36-11.28-46.38c-1.62-4.31-4.17-6.87-8.5-8.67
	c-7.65-3.17-15.23-6.68-22.35-10.9C720.93,528.13,708.78,513.41,698.67,495.94z M264.62,735.45c13.62-11.58,24.46-22.67,32.81-35.92
	c9.48-15.05,15.76-31.48,20.76-48.56c5.12-17.5,12.59-34.38,16.91-52.04c4.73-19.34,7.28-39.24,10.24-58.98
	c0.93-6.16,2.1-13.52-0.33-18.69c-4.19-8.87-11.12-16.43-16.95-24.61c-5.4,7.31-10.12,14.65-15.77,21.18
	c-12.97,14.98-29.22,25.33-47.77,32.21c-1.99,0.74-4.38,2.27-5.18,4.06c-8.92,19.85-13.25,40.86-14.33,62.49
	c-1.2,24.17,0.94,48.17,6.56,71.7C255.2,703.54,259.89,718.53,264.62,735.45z M577.56,1120.04c0.08-0.1-0.44,0.34-0.69,0.91
	c-17.15,39.05-22.91,80.57-24.49,122.56c-0.85,22.48,2.19,45.11,3.65,67.66c0.52,8.07,1.28,16.14,2.5,24.13
	c0.58,3.78,1.43,8.83,4.03,10.74c5.86,4.29,13.06,6.1,20.61,4.22c15.59-3.88,26.69-14.14,35.99-26.38
	c16.42-21.62,16.52-46.39,12.39-71.66c-4.31-26.43-15.95-50.2-27.24-74.11C595.23,1158.88,586.5,1139.48,577.56,1120.04z
	 M449.4,1119.02c-10.65,22.97-20.68,44.98-31.03,66.84c-10.32,21.77-20.11,43.7-23.91,67.74c-4.32,27.31-2.23,53.17,16.89,75.3
	c9.32,10.78,20.13,18.98,34.43,21.72c12.41,2.38,21.06-4.41,21.95-16.85c0.71-9.98,1.64-19.95,2.61-29.91
	c2.47-25.41,6.13-50.77,2.48-76.38c-3.05-21.43-5.13-43.06-9.46-64.23C460.28,1148.22,454.18,1133.82,449.4,1119.02z M295.71,383.43
	c-3.13,1.54-5.88,3.2-8.84,4.3c-14,5.17-23.14,14.75-27.15,29.2c-4.03,14.53-8.75,28.9-12.04,43.59
	c-2.64,11.78-5.29,24.01-4.81,35.91c0.5,12.32,4.35,24.6,7.48,36.7c3.09,11.94,10.54,14.84,21.97,9.87
	c14.78-6.42,27.68-15.63,37.55-28.17c6.89-8.76,13.79-18.41,17.19-28.8c5.62-17.21,12.93-32.67,26.2-45.28
	c7.97-7.58,13.39-17.04,16.2-27.83c2.44-9.38-1.61-17.14-10.94-20.01c-3.81-1.17-7.93-1.99-11.89-1.95
	c-10.87,0.11-21.73,0.88-32.59,1.17C306.8,392.31,300.76,389.55,295.71,383.43z M785.22,494.24c-0.57-0.12-1.13-0.25-1.7-0.37
	c0-2.14,0.4-4.37-0.06-6.4c-5.06-22.13-10.4-44.2-15.38-66.34c-4.28-19.01-16.87-29.93-34.43-36.06c-1.55-0.54-3.76,0.32-5.52,0.93
	c-5.68,1.96-11.22,5.56-16.95,5.87c-11.23,0.61-22.56-1.04-33.84-0.89c-15.38,0.2-24.84,9.87-20.57,22.12
	c3.2,9.17,8.54,18.22,14.99,25.49c11.48,12.95,21.01,26.5,26.16,43.25c9.49,30.86,30.99,50.66,60.26,62.63
	c6.52,2.67,14.31-0.5,16.22-7.11C778.49,523.12,781.67,508.63,785.22,494.24z M825.54,871.72c0.03-0.05-0.37,0.41-0.55,0.95
	c-10.54,31.33-28.04,58.72-47.71,84.95c-9.71,12.95-20.03,25.68-27.88,39.74c-12.13,21.73-8.54,46.05-7.93,69.66
	c0.08,3.15,0.87,6.3,1.46,9.43c0.95,4.98,3.2,5.35,6.96,2.16c7.62-6.49,9.26-15.35,10.8-24.54c1.03-6.19,2.36-12.63,5.17-18.14
	c3.05-5.97,9.59-6.12,12.82-0.38c9.05,16.06,18.72,32.09,16.37,51.86c-0.27,2.28,0.43,4.66,0.47,7c0.21,10.32,3.26,20.54-0.49,31.01
	c-2.56,7.15-4.1,14.83-4.91,22.4c-0.81,7.49-3.19,15.76,4.57,22.61c2.03-5.23,4.06-9.84,5.64-14.6
	c4.69-14.11,10.37-28.04,13.42-42.51c2.71-12.83,2.61-26.28,3.39-39.47c1.8-30.26,3.86-60.52,4.91-90.81
	c0.79-22.61-0.23-45.28,0.32-67.91C822.73,900.47,824.46,885.84,825.54,871.72z M281.37,1081.24c1.07-2.36,2.36-3.88,2.36-5.4
	c-0.03-20.43,0.63-40.92-0.68-61.28c-1.19-18.5-16.08-30.49-25.19-45.12c-12.37-19.86-26.88-38.39-39.1-58.34
	c-7.6-12.4-12.66-26.36-18.24-38.3c0.23,2.6,0.68,6.61,0.92,10.63c1.25,21.28,2.8,42.55,3.53,63.84
	c0.58,16.84-0.45,33.75,0.25,50.58c1.26,30.04,3.88,60.03,4.79,90.08c0.65,21.24,5.38,41.27,13.16,60.81
	c2.85,7.16,5.5,14.4,8.24,21.6c0.56,0.02,1.12,0.05,1.69,0.07c1.11-2.42,3.06-4.8,3.17-7.27c0.26-6.05-0.05-12.17-0.62-18.21
	c-1.3-13.83-8.35-26.68-5.9-41.31c1.42-8.45-1.52-17.84,0.76-25.89c3.91-13.8,9.52-27.32,16.06-40.12
	c4.5-8.81,11.72-7.57,15.93,1.59c0.79,1.71,1.35,3.58,1.68,5.44c0.97,5.44,1.57,10.94,2.66,16.35
	C268.58,1069.57,271.89,1077.16,281.37,1081.24z M766.63,921.63c6.05-35.15,18.08-67.89,32.87-99.74
	c15.87-34.18,25.78-69.45,20.2-107.69c-2.7-18.49-10.93-34.61-20.79-51.73c-0.86,5.58-1.31,9.74-2.17,13.82
	c-4.19,19.98-13.91,37.6-25.25,54.09c-25.44,37-30.82,77.42-21.89,120.32C754.56,874.49,760.91,897.99,766.63,921.63z
	 M259.06,921.46c0.48-2.05,0.84-4.14,1.46-6.16c8.23-26.85,16.89-53.7,18.55-81.9c0.96-16.29,0.66-32.86-1.24-49.05
	c-2.46-20.95-13.74-38.7-24.63-56.32c-10.22-16.54-19.98-33.28-23.8-52.69c-0.71-3.61-1.05-7.29-1.56-10.93
	c-0.7-0.16-1.41-0.32-2.11-0.47c-4.76,10.34-9.72,20.59-14.22,31.03c-7.26,16.84-5.5,34.75-5.65,52.4
	c-0.16,20,5.77,38.71,13.46,56.72C235.59,842.2,253.27,879.76,259.06,921.46z M688.63,1418.21c-3.54,7.8-6.14,15.05-9.96,21.59
	c-5.69,9.74-7.6,19.82-7.38,31.09c0.85,44.7,1.65,89.41,1.19,134.11c-0.26,24.76-1.61,49.45,1.45,74.15
	c1.58,12.7,7.91,31.99,13.9,40.63c1.62-17.84,3.03-37.17,5.22-56.4c1.92-16.89,4.74-33.68,7.1-50.52
	c2.83-20.21,6.1-40.37,8.23-60.66c1.84-17.5,3.89-35.21,3.07-52.7C710.12,1471.15,698.85,1445.15,688.63,1418.21z M477.12,1230.29
	c1.03-8.15,2.25-16.29,3.04-24.47c1.04-10.78,2.5-21.61,2.36-32.4c-0.14-10.37-1.71-20.78-3.36-31.06
	c-2.63-16.35-4.56-32.98-9.15-48.8c-4.9-16.87-12.49-32.96-19.01-49.35c-12.87-32.37-20.65-66.15-26.78-100.25
	c-3.47-19.3-7.43-38.06-19.57-53.95c-2.52-3.3-6.43-5.54-9.7-8.27c-1.61,4.17-4.43,8.29-4.63,12.52
	c-1.24,25.94,2.55,51.41,8.23,76.65c10.76,47.84,29.83,92.7,49.49,137.31C465.17,1147.12,473.06,1188.01,477.12,1230.29z
	 M339.12,1719.29c1.19-2.37,3.06-5.67,4.55-9.13c7.72-17.89,10.26-36.89,10.78-56.08c0.49-18.39-0.41-36.81-0.38-55.22
	c0.08-46.03,0.36-92.05,0.53-138.08c0.01-2.34,0.44-4.99-0.46-6.98c-5.13-11.38-10.6-22.61-16.63-35.29
	c-3.83,10.39-7.47,19.61-10.63,28.99c-6.94,20.63-13.83,41.36-12.62,63.54c0.77,14.02,2.14,28.02,3.9,41.95
	c3.68,29.12,7.99,58.16,11.68,87.28C333.19,1666.65,336.07,1693.09,339.12,1719.29z M549.44,1229.61
	c1.28-9.82,2.85-20.98,4.19-32.18c4.19-35.18,15.53-68.13,29.35-100.6c12.99-30.55,24.84-61.63,35.85-92.95
	c9.41-26.74,14.57-54.68,16.81-82.96c0.88-11.17,0.21-22.57-0.94-33.74c-0.67-6.45-5.51-7.8-8.8-2.56
	c-7.21,11.48-14.91,23.14-19.24,35.81c-4.69,13.72-5.45,28.74-8.5,43.08c-6.12,28.72-13.04,57.22-24.44,84.45
	c-6.4,15.28-13.38,30.52-17.62,46.44c-4.9,18.4-7.51,37.47-10.29,56.37c-1.7,11.56-3.12,23.43-2.41,35.03
	C544.32,1201.02,547.48,1216.1,549.44,1229.61z M584.55,1424.65c-0.68,2.91-1.38,5.14-1.71,7.43c-2.57,17.66-5.96,35.26-7.36,53.01
	c-1.67,21.08-1.42,42.23,7.69,62.2c8.03,17.61,15.74,35.36,23.45,53.11c2.33,5.37,4.19,10.95,6.43,16.85
	c13.04-6.37,20.34-16.59,25.49-28.98c6.42-15.42,4.7-31.35,3.79-47.26c-1.28-22.57-5.23-44.53-18.61-63.43
	C611.21,1459.89,597.97,1442.72,584.55,1424.65z M413.45,1617.67c1.61-4.75,2.68-8.87,4.37-12.7c7.41-16.77,15.16-33.39,22.47-50.2
	c7.29-16.76,12.25-34.26,11.38-52.65c-0.77-16.36-2.74-32.68-4.68-48.96c-1.12-9.39-3.22-18.66-4.92-28.23
	c-7.73,9.98-14.83,19.49-22.29,28.69c-11.88,14.63-23.79,29.47-28.69,47.95c-3.68,13.88-5.9,28.31-7.1,42.63
	c-0.96,11.51-2.42,23.17,0.86,34.89C389.41,1595.38,397.18,1608.81,413.45,1617.67z M691.61,1056.15c-0.18,0.09-0.37,0.18-0.55,0.27
	c0.31,4.67,1.06,9.36,0.87,14.02c-0.62,14.91-0.56,29.96-2.69,44.67c-2.77,19.09-6.4,38.18-11.51,56.77
	c-5.4,19.64-13.51,38.53-19.47,58.04c-7.41,24.28-10.5,48.88,0.47,73.12c5.09,11.24,12.88,19.56,25.92,21.32
	c4.17,0.56,6.22-0.87,6.62-5.46c1.53-17.4,3.68-34.74,5.11-52.15c2.32-28.25,4.81-56.5,6.19-84.81c1.52-31.19-0.32-62.33-5.08-93.24
	C695.8,1077.81,693.58,1067,691.61,1056.15z M335.25,1056.41c-0.12,0.09-0.32,0.17-0.35,0.29c-6.63,29.55-10.93,59.49-11.32,89.72
	c-0.35,26.88,1.32,53.79,2.41,80.68c0.45,11.06,1.53,22.1,2.68,33.12c1.91,18.4,4.27,36.75,6.1,55.15
	c0.88,8.87,3.43,11.13,11.87,8.12c10.96-3.9,17.68-12.25,21.92-22.75c7.48-18.51,7.44-37.76,2.96-56.59
	c-4.17-17.53-10.22-34.67-16.39-51.64c-11.73-32.25-19.45-65.21-19.87-99.65C335.12,1080.71,335.24,1068.56,335.25,1056.41z
	 M201.64,763.7c-9.68,27-8.69,55.35-3.43,83.64c5.57,29.97,18.96,56.84,35.59,82.11c7.3,11.09,15.25,21.75,23.95,34.08
	c-0.38-4.46-0.77-6.76-0.75-9.06c0.26-26.23-4.57-51.7-12.84-76.41c-5.99-17.91-13.81-35.2-20.41-52.92
	C216.13,804.68,208.93,784.03,201.64,763.7z M825.01,762.85c-7.35,20.51-13.23,41-21.88,60.24c-16.9,37.57-29.96,76.02-33.77,117.23
	c-0.61,6.59-0.09,13.28-0.09,20.52c1.23-0.86,1.67-1.02,1.9-1.34c5.51-7.58,11.11-15.11,16.49-22.79
	c30.34-43.39,48.28-90.61,43.38-144.5C830.14,782.24,827.05,772.47,825.01,762.85z M574.51,281.12c-0.88,5.68-0.91,9.57-2.15,13.02
	c-2.19,6.09,0.28,9.9,4.54,13.89c3.21,3,5.8,6.84,8.06,10.66c7.17,12.13,13.98,24.46,21.05,36.64
	c9.04,15.58,23.36,22.31,40.48,20.21c17.62-2.16,34.93-6.85,52.37-10.43c0.27-0.8,0.55-1.6,0.82-2.4
	c-12.49-8.29-24.47-17.52-37.58-24.67c-21.71-11.84-44.24-22.16-66.23-33.5C586.65,299.77,577.69,294.25,574.51,281.12z
	 M451.66,281.08c-3.06,13.22-12.46,18.82-22.17,23.8c-22.01,11.28-44.27,22.08-66.27,33.38c-12.89,6.62-24.58,15.03-36.36,26.47
	c18.96,3.93,36.26,8.59,53.86,10.84c16.2,2.07,29.68-4.76,38.63-18.9c4.09-6.47,7.32-13.48,11.47-19.91
	c7.02-10.89,14.53-21.46,21.62-32.31c1.28-1.96,2.27-4.66,2.08-6.9C454.11,292.55,452.86,287.63,451.66,281.08z M384.45,775.37
	c-15.72,19.15-21.81,40.04-14.41,63.87c0.73,2.35,1.72,5.08,3.49,6.57c8.12,6.84,16.35,13.6,24.96,19.81
	c6.35,4.57,11.08,3.82,16.33-1.95c3.57-3.92,6.75-8.24,9.72-12.65c10.17-15.09,9.86-30.53-0.03-45.42
	C414.74,790.92,400.1,782.32,384.45,775.37z M642.25,775.12c-15.12,7.08-29.26,14.7-38.93,28.06c-7.48,10.33-11.24,22.03-7.64,35.02
	c3.07,11.08,10.13,19.73,18.05,27.5c4.52,4.43,10.4,3.32,15.27-0.44c7.09-5.48,14.03-11.15,20.9-16.9c2.03-1.7,4.8-3.72,5.21-5.96
	c1.79-9.78,4.08-19.72,3.84-29.54C658.6,798.74,650.19,787.4,642.25,775.12z M532.16,409.36c45.41-20.06,85.68-4.41,126.62,18.33
	c-1.77-2.97-2.64-4.14-3.21-5.45c-7.35-16.65-3.31-31.68,15.23-33.71c10.62-1.16,21.62,0.13,32.35,1.26
	c9.85,1.04,19.51-1.97,23.98-9.62c-4.11-3.08-8.15-6.52-12.57-9.36c-9.71-6.23-19.34-1.18-28.95,0.71
	c-13.73,2.7-27.45,5.43-41.17,8.17c-4.71,0.94-9.54,1.53-14.09,2.97c-9.93,3.15-19.56,7.35-29.61,10
	c-12.31,3.24-24.92,6.15-37.78,3.34c-7.55-1.65-14.94-4.04-23.05-6.28C537.45,395.91,534.67,402.97,532.16,409.36z M368.68,427.52
	c18.21-12.23,38.03-20.76,59.65-24.53c22.43-3.92,44.91-6.49,66.39,8.39c-3.09-8.15-5.74-15.16-8.51-22.46
	c-5.32,2.08-9.92,4.27-14.75,5.69c-15.94,4.7-31.55,1.41-47.19-2.21c-18.08-4.19-34.4-15.44-54-13.53c-0.19,0.02-0.39-0.16-0.6-0.21
	c-14.05-3.38-28.1-6.8-42.17-10.11c-10.1-2.37-22.79,3.75-27.84,13.29c4.89,6.26,14.88,9.13,24.28,7.88
	c8.84-1.18,17.82-2.26,26.7-2.07c19.57,0.4,28.35,13.14,21.76,30.58C371.22,421.35,369.91,424.42,368.68,427.52z M454.37,305.35
	c-6.5,11.29-12.58,21.01-17.82,31.16c-9.21,17.85-17.9,35.97-39.79,42.5c7.52,2.91,15.01,7.3,22.07,6.7
	c22.64-1.93,39.57-13.49,48.92-34.79c0.88-2.01,1.42-4.8,0.75-6.76C464.29,331.94,459.7,319.86,454.37,305.35z M572.56,306.59
	c-0.65,0.34-1.29,0.68-1.94,1.02c-3.2,9.43-5.4,19.37-9.86,28.17c-5.08,10.03-2.35,17.86,3.5,25.75c1.9,2.56,4.13,4.9,6.38,7.17
	c16.5,16.64,34.25,20.21,55.98,11.33c0.88-0.36,1.81-0.61,4.05-1.37c-14.31-3.95-23.73-12.14-30.54-23.45
	c-3.18-5.29-5.84-10.88-8.9-16.25C585.06,328.14,578.79,317.38,572.56,306.59z M368.73,866.51c-1.42,5.34-3.02,9.65-3.69,14.1
	c-2.87,19.1-7.36,38.22-7.57,57.37c-0.17,15.74-2.17,30.79-5.51,45.92c-1.6,7.27-3.29,14.52-5.21,22.95
	c14.93-10.29,21.04-24.59,24.34-39.9c3.84-17.8,6.92-35.85,8.83-53.95C381.62,897,379.73,881.14,368.73,866.51z M679.28,1006.35
	c-0.1-1.41-0.05-2.02-0.19-2.57c-5.91-22.85-10.96-45.63-10.22-69.69c0.44-14.43-3.21-29.04-5.52-43.49
	c-1.24-7.74-3.54-15.31-5.66-24.16c-10.81,14.72-12.48,29.96-11.28,45.73c0.69,9.1,1.93,18.17,3.26,27.2
	c2.46,16.61,5.16,33.21,12.98,48.38C666.45,995.15,671.55,1001.44,679.28,1006.35z M572.79,264.09c-0.94-0.28-1.88-0.56-2.82-0.83
	c-3.37,4.3-7.99,8.1-9.89,12.97c-9.83,25.14-18.75,50.62-28.4,75.83c-6.83,17.85-6.72,44.05-2.92,56.89
	c3.68-9.44,7.45-18.66,10.88-28.02c11.09-30.28,26.53-59.14,30.3-91.84C570.89,280.76,571.84,272.42,572.79,264.09z M497.71,408.72
	c3.51-22.29,2.8-43.78-6.35-64.99c-9.15-21.22-16.87-43.11-24.16-65.06c-2.4-7.23-7.49-10.47-12.86-15.71
	C453.82,316.92,481.51,361.08,497.71,408.72z M259.03,731.82c0.29-0.13,0.57-0.26,0.86-0.39c-0.16-0.79-0.22-1.62-0.49-2.38
	c-12.79-36.09-19.5-73.13-17.89-111.55c0.88-21.01,4.53-41.45,12.79-60.8c2.41-5.64,1.16-8.85-3.45-12.58
	c-7.75,20.31-13.03,40.56-14.91,61.64c-1.08,12.09-1.81,24.22-3.03,36.29c-1.66,16.28-2.38,32.59,4.56,47.8
	C244,704.14,251.8,717.85,259.03,731.82z M768.2,730.19c6.82-13.2,14.6-26,20.12-39.72c3.8-9.45,6.43-20.23,6.11-30.31
	c-0.72-22.5-2.65-45.08-5.94-67.36c-2.42-16.39-7.75-32.36-11.78-48.51c-1.2,0.03-2.39,0.06-3.59,0.09
	c-0.59,3.52-2.67,7.65-1.53,10.47c10.75,26.53,13.95,54.05,13.19,82.47C783.92,669.15,776.76,699.56,768.2,730.19z M297.72,746.56
	c-6.09,5.81-11.18,10.9-16.55,15.68c-3.3,2.94-3.75,5.84-2.58,10.11c5.41,19.76,6.18,39.88,3.82,60.18
	c-0.94,8.05-1.74,16.12-2.6,24.19C293.43,821.85,309.26,787.36,297.72,746.56z M728.85,746.76c-9.74,23.3-0.22,78.5,17.79,111.83
	c-1.23-12.3-3.92-26.46-3.71-40.58c0.24-15.82,3.16-31.6,4.8-47.41c0.2-1.9,0.46-4.58-0.59-5.69
	C741.49,758.87,735.44,753.21,728.85,746.76z M749.97,762.87c3.76-7.58,6.96-13.58,9.66-19.8c0.61-1.41,0.12-4.23-0.96-5.3
	c-15.48-15.46-31.54-30.42-41.83-50.38c-0.05,9.38-0.15,18.6,1.04,27.65c0.87,6.62,1.83,14.23,5.61,19.24
	C731.08,744.37,740.63,753,749.97,762.87z M310.4,688.4c-0.54-0.04-1.09-0.07-1.63-0.11c-3.19,4.99-5.85,10.44-9.69,14.87
	c-9.76,11.25-20.11,21.99-30.04,33.1c-1.43,1.6-3.09,4.64-2.48,6.15c2.65,6.6,6.1,12.89,9.34,19.45
	c7.59-6.94,15.4-13.01,21.82-20.32c4.19-4.78,7.94-11.03,9.1-17.15C309.06,712.59,309.32,700.42,310.4,688.4z M392.53,1731.66
	c-0.22-2.62-0.74-4.54-0.47-6.34c2.68-17.42,5.1-34.9,8.46-52.2c1.36-6.98,2.22-12.71-4.39-17.51c-2.28-1.65-3.92-4.59-5.1-7.27
	c-4.16-9.42-8-18.99-11.96-28.5c0.68-0.11,1.36-0.22,2.04-0.33c0,25.87-0.46,51.75,0.2,77.6
	C381.62,1709.15,384.58,1720.98,392.53,1731.66z M646.18,1619.28c-5.29,21.19-6.73,23.9-20.28,40.81c-1.16,1.45-1.35,4.23-1.03,6.23
	c3.46,21.47,7.11,42.91,10.53,63.24c-0.34,0.56,0.2-0.31,0.73-1.2c8.94-14.93,9.44-31.71,9.91-48.28
	C646.63,1659.79,646.18,1639.47,646.18,1619.28z M639.79,705.68c-0.61-0.11-1.21-0.21-1.82-0.32c-1.26,2.91-2.41,5.88-3.78,8.73
	c-5.55,11.49-9.96,24.9-21.6,30.75c-9.05,4.55-7.86,10.4-7.94,17.27c-0.04,3.21-0.15,6.42,0.05,9.62c0.33,5.2,2.95,7.13,7.51,4.99
	c12-5.64,20.16-15.42,27.14-26.31c0.52-0.81,0.42-2.08,0.42-3.13C639.8,733.41,639.79,719.54,639.79,705.68z M386.33,705.15
	c0,12.81-0.06,26.27,0.05,39.74c0.02,2.27-0.04,5.24,1.27,6.67c7.15,7.8,14.53,15.42,22.28,22.64c2.05,1.91,5.65,2.16,8.54,3.17
	c0.99-2.84,2.08-5.65,2.92-8.53c0.41-1.41,0.6-2.98,0.49-4.45c-0.53-7.24,2.51-16.03-8.32-18.91c-1.64-0.44-3.2-2.28-4.21-3.85
	C401.7,729.68,394.19,717.64,386.33,705.15z M644.47,1584.06c-5.23,15.53-14.17,27.91-28.5,36.15c-1.08,0.62-1.5,3.61-1.14,5.27
	c1.54,7.26,3.45,14.44,5.29,21.63c0.84,3.29,1.83,6.55,2.98,10.63C644.27,1636.38,643.69,1610.1,644.47,1584.06z M388.86,612.45
	c0.92,4.22,1.7,7.89,2.53,11.54c3.46,15.25,11.53,28.17,20.77,40.43c1.84,2.44,5.52,5.85,6.66,0.1c1.75-8.76,2.28-17.82,2.67-26.78
	c0.36-8.19-8.15-10.2-11.99-15.53C404.69,615.51,397.89,612.85,388.86,612.45z M381.98,1582.66c-1.05,35.4,5.66,63.97,21.75,73.98
	c2.72-10.72,5.55-21.34,7.97-32.05c0.33-1.44-0.97-4.13-2.3-4.94C395.8,1611.41,387.41,1599.3,381.98,1582.66z M637.11,612.66
	c-8.92,0.08-15.63,2.93-20.62,9.54c-1.53,2.02-3.34,4.08-5.48,5.33c-7.19,4.2-6.99,11.17-6.93,17.93c0.03,3.76,0.92,7.57,1.81,11.26
	c0.86,3.56,2.24,6.99,3.39,10.47c2.86-2.58,6.27-4.76,8.48-7.82C627.78,645.46,634.94,630.27,637.11,612.66z M639.7,670.02
	c-0.64-0.21-1.28-0.43-1.92-0.64c-1.22,3.49-2.42,6.98-3.66,10.46c-4.52,12.65-11.17,23.42-24.56,28.5
	c-1.24,0.47-2.46,2.35-2.73,3.76c-1.41,7.3-2.75,14.63-3.57,22c-0.22,1.94,0.99,5.24,2.44,5.87c1.96,0.85,5.16,0.41,7.14-0.7
	c2.27-1.28,3.97-3.77,5.57-5.97C632.16,714.42,640.85,693.84,639.7,670.02z M418.88,623.95c6.82-12.54,7.85-23.95-1.27-34.62
	c-10.17-11.89-15.2-12.63-34.23-5.74C392.15,599.54,404.47,612.15,418.88,623.95z M643.05,582.94c-5.56-1.27-10.54-1.75-14.97-3.57
	c-6.12-2.51-9.95,1.19-13.66,4.34c-3.66,3.11-6.83,7.01-9.49,11.04c-4.48,6.8-4.42,21.29,3.27,28.53
	C622.02,612.03,634.45,599.59,643.05,582.94z M388.06,669.22c-0.91,0.27-1.82,0.53-2.73,0.8c2.03,10.99,3.17,22.25,6.31,32.92
	c3.93,13.35,10.73,25.55,21.04,35.25c1.74,1.64,5.62,2.44,7.83,1.66c1.53-0.54,2.77-4.52,2.57-6.83c-0.58-6.53-1.8-13.02-3.12-19.45
	c-0.39-1.88-1.57-4.54-3.05-5.1c-15.47-5.88-21.37-19.13-26.3-33.25C389.88,673.18,388.91,671.22,388.06,669.22z M425.03,388.96
	c4.07,0.99,6.09,1.59,8.16,1.96c14.54,2.6,29.12,4.49,43.22-1.84c8.48-3.81,8.4-4.04,4.99-12.58c-3.07-7.68-6.19-15.35-9.8-24.3
	C461.82,372.37,447.1,384.14,425.03,388.96z M599.06,389.58c0.16-0.39,0.24-0.58,0.32-0.78c-20.27-5.2-35.66-16.62-44.74-36.85
	c-4.54,11.59-8.55,21.84-12.73,32.53C560.29,397.13,579.68,393.61,599.06,389.58z M392.16,639.97c-0.87,0.24-1.75,0.49-2.62,0.73
	c1.06,9.52,1.59,19.13,3.31,28.53c2.21,12.15,7.14,23.23,16.96,31.33c1.87,1.54,5.46,2.93,7.21,2.12c1.73-0.8,3.02-4.51,2.93-6.88
	c-0.23-5.69-1.07-11.41-2.3-16.98c-0.69-3.09-2.31-6.15-4.13-8.8c-5.76-8.37-11.81-16.53-17.74-24.79
	C394.53,643.51,393.36,641.73,392.16,639.97z M635.93,641.05c-0.72-0.34-1.44-0.67-2.16-1.01c-1.17,1.85-2.27,3.74-3.51,5.54
	c-4.9,7.16-9,15.13-15,21.21c-5.81,5.88-7.53,12.35-8.08,19.86c-0.18,2.53-1.12,5.09-0.86,7.55c0.31,2.94,1.55,5.78,2.38,8.67
	c2.8-0.96,6.31-1.16,8.29-3.01C634.34,683.72,635.9,662.58,635.93,641.05z M670.98,537.74c-4.94,3.97-11.86,9.34-18.48,15.06
	c-0.93,0.8-0.92,3.44-0.47,4.98c4.03,13.75,8.26,27.44,11.57,38.34C665.92,577.75,668.68,555.94,670.98,537.74z M618.24,571.67
	c10.73,5.07,23.3,7.8,38.33,8.19c-3.17-8.26-5.85-15.23-8.24-21.45C637.52,563.18,627.55,567.57,618.24,571.67z M377.76,558.33
	c-2.42,6.52-5.01,13.5-7.6,20.49c0.57,0.75,1.13,1.51,1.7,2.26c12.43-2.85,24.85-5.69,37.63-8.62
	C398.46,567.55,388.7,563.2,377.76,558.33z M350.05,537.8c-4.11,23.54-8.85,50.66-13.06,74.81c1.85-3.93,4.48-11.19,8.45-17.62
	C357.7,575.12,352.05,554.37,350.05,537.8z M676.26,537.27c-0.76,6.12-2.29,17.18-3.44,28.29c-1,9.67,9.33,36.68,16,45.53
	C684.71,586.92,680.09,559.75,676.26,537.27z M368.59,601.54c-2.12,21.31,5.77,28.63,22,33.32c-1.71-7.24-3.35-14.67-5.29-22.01
	c-0.37-1.39-1.71-2.84-2.99-3.62C377.99,606.59,373.49,604.25,368.59,601.54z M657.82,601.45c-4.93,2.73-9.9,5.39-14.77,8.23
	c-0.98,0.57-1.96,1.76-2.22,2.84c-1.77,7.52-3.35,15.08-5,22.69C655.48,627.67,658.57,622.5,657.82,601.45z M629.14,610.08
	c10.79-2.69,20.16-5.61,26.4-13.15c2.14-2.58,0.42-8.36,0.46-12.67c-3.3,0.51-8.02-0.17-9.64,1.75
	C640.39,593.13,635.42,601.1,629.14,610.08z M397.06,609.94c-5.54-7.85-10.89-14.9-15.61-22.36c-2.2-3.49-4.84-4.81-8.39-3.85
	c-1.6,0.43-3.85,2.4-3.91,3.75c-0.14,3.29-0.35,7.8,1.56,9.74C377.71,604.3,386.85,607.7,397.06,609.94z M792.51,1114.7
	c-0.58-0.34-1.15-0.67-1.73-1.01c-4.75,8.43-9.91,16.67-14.12,25.36c-3.09,6.39-0.53,12.53,3.89,18.35
	C787.29,1143.84,786.95,1128.44,792.51,1114.7z M244.81,1157.62c1.02-0.07,2.03-0.15,3.05-0.22c0.89-4.03,2.52-8.05,2.55-12.08
	c0.08-12.97-11.02-20.58-15.58-31.48C238.57,1128.4,239.66,1143.55,244.81,1157.62z M236.61,1093.98
	c-1.34,17.16,11.55,27.77,18.46,41.13C256.02,1118.14,242.1,1108,236.61,1093.98z M771.13,1134.86c7.19-13.02,19.2-23.9,18.47-40.54
	C783.96,1108.07,770.66,1118.23,771.13,1134.86z M653.23,630.31c-4.21,2.67-7.62,4.67-10.84,6.95c-1.22,0.87-2.78,2.34-2.83,3.59
	c-0.26,7.48-0.13,14.98-0.13,22.48c0.24,0.18,0.48,0.37,0.72,0.55C644.4,652.98,648.64,642.08,653.23,630.31z M374.11,631.29
	c5.05,18.42,9.56,28.65,13.76,31.17c-0.74-22.44-0.74-22.44-13.17-31.16C374.57,631.21,374.31,631.29,374.11,631.29z
	 M513.65,1031.97c-0.68,0.18-1.37,0.36-2.05,0.54c0.39,5.54,0.79,11.09,1.18,16.63c0.29-0.03,0.58-0.06,0.87-0.09
	C513.65,1043.36,513.65,1037.67,513.65,1031.97z M1327.55,589.81c-3.96,8.19-8.28,16.95-12.46,25.78
	c-6.72,14.2-14.16,28.13-19.81,42.75c-5.61,14.53-7.87,29.9-7.37,45.73c0.43,13.5-1.05,26.91-9.96,38.22
	c-0.74,0.94-0.84,2.8-0.55,4.08c7.84,33.54-0.26,64.91-12.1,96.08c-9.58,25.22-18.59,50.72-26.37,76.54
	c-3.96,13.14-5.95,27.46-1.98,41.07c2.62,9,6.5,18.36,12.32,25.53c9.63,11.84,13.6,25.22,14.13,39.56
	c0.62,16.6-0.26,33.28-1.25,49.88c-0.22,3.61-2.88,8.37-5.88,10.19c-4.26,2.57-8.3-0.93-11.69-4.2c-8.86-8.57-9.39-20.03-11.34-31.1
	c-0.78-4.4-2.62-8.62-3.97-12.92c-0.75-0.05-1.51-0.11-2.26-0.16c-2.03,3.06-4.37,5.98-6.02,9.23c-2.32,4.55-3.68,9.61-6.24,14
	c-8.41,14.37-3.2,28.75,0.66,42.58c1.61,5.76,7.91,10.33,12.39,15.15c7.48,8.05,8.02,16.92,3.93,26.6
	c-2.23,5.28-4.25,10.67-6.61,15.89c-1.02,2.25-2.67,4.2-4.21,6.57c-1.71-1.55-2.94-2.66-4.79-4.34c-0.34,0.69-0.64,1.23-0.87,1.8
	c-0.77,1.97-0.97,4.53-2.36,5.8c-2.87,2.62-6.37,4.56-9.62,6.78c-1.54-2.64-3.49-5.13-4.55-7.95
	c-5.17-13.75-11.15-27.31-14.79-41.47c-3.31-12.88-4.61-26.39-5.7-39.71c-2.11-25.72-3.83-51.49-5-77.27
	c-0.76-16.67-0.12-33.39-0.35-50.09c-0.29-20.73-0.07-41.5-1.47-62.16c-1.4-20.57-4.67-41.01-6.89-61.53
	c-2.98-27.57-3.73-54.94,8.51-80.97c1.11-2.37,1.04-5.37,1.18-8.09c0.7-13.84,0.05-27.88,2.24-41.47
	c2.65-16.53,10.86-31.24,19.3-45.69c2.88-4.93,4.89-11.01,5.24-16.69c2.16-34.51,5.28-68.77,18.2-101.35
	c0.88-2.23,0.31-5.4-0.44-7.87c-5.08-16.64-9.46-33.59-6.93-50.96c2.44-16.79,6.73-33.33,10.73-49.86c1.95-8.04,5.2-15.75,7.7-23.66
	c3.43-10.81,10.58-18.4,20.4-23.56c9.04-4.75,18.69-8.38,25.68-16.46c1.83-2.12,4.91-3.57,7.69-4.37c7.77-2.23,14.16-6.26,20.2-11.7
	c18.18-16.37,40.54-25.73,62.31-36.09c16.15-7.69,32.17-15.73,47.83-24.36c9.96-5.49,10.75-16.81,13.94-26.37
	c0.38-1.13-0.58-2.94-1.34-4.17c-5.56-9-7.87-18.81-7.3-29.78c-11.41-1.57-14.17-11.67-19.6-19.35
	c-8.59-12.13-10.6-25.19-7.35-39.49c2.77-12.17,5.61-14.09,17.26-10.49c0.65-10.4,0.94-20.81,2.03-31.14
	c1.72-16.25,5.34-31.97,16.07-45.03c6.7-8.16,15.74-12.76,25.41-16.46c29.07-11.12,56.71-8.21,82.81,8.53
	c12.02,7.71,18.58,19.69,21.27,33.13c2.82,14.12,3.77,28.62,5.42,42.96c0.3,2.65,0.04,5.37,0.04,8.32
	c11.99-4.09,15.21-1.35,18.09,10.99c3.72,15.97-1.29,29.34-9.87,42.16c-4.1,6.13-7.03,13.31-15.17,15.67
	c-0.99,0.29-1.82,2.58-1.98,4.03c-0.97,9.17-2.71,18.02-7.46,26.17c-1.08,1.85-0.82,4.81-0.44,7.15
	c2.49,15.23,11.61,24.79,25.48,31.05c20.61,9.29,40.85,19.39,61.31,29.01c15.39,7.24,29.08,16.91,41.67,28.24
	c0.64,0.57,1.18,1.49,1.91,1.68c16.57,4.18,27.32,18.43,42.76,24.59c12.43,4.96,20.45,14.12,24.7,26.8
	c7.93,23.65,14.51,47.63,17.8,72.39c1.98,14.9-0.81,29.49-5.43,43.48c-2.78,8.45-2.49,15.82,0.65,23.92
	c7.93,20.41,11.41,41.81,12.87,63.58c0.78,11.7,0.79,23.56,2.94,35c1.24,6.55,5.93,12.51,9.34,18.58
	c10.61,18.85,18.78,38.66,16.94,60.63c-1.44,17.22,4.45,32.55,8.44,48.55c4.76,19.09,3.57,38.48,1.22,57.84
	c-2.06,16.9-3.51,33.87-5.59,50.77c-4.58,37.31-1.29,74.78-2.66,112.14c-0.97,26.43-3.03,52.83-4.88,79.22
	c-0.97,13.8-0.88,27.99-4.24,41.25c-5,19.68-12.65,38.69-19.19,58.05c-9.47-1.09-12.16-7.75-15.82-16.04
	c-1.21,2.77-1.98,4.54-2.76,6.3c-7.49-12.3-15.42-23.57-13.7-37.17c0.77-6.08,5.47-12.4,9.97-17.09c5.87-6.11,7.92-13.1,10.72-20.76
	c6.34-17.37-1.8-31.03-7.94-45.5c-1.52-3.57-4.02-6.73-6.43-10.66c-6.77,6.2-5.34,13.84-7.33,20.3c-2.23,7.23-4.63,14.45-7.71,21.34
	c-1.19,2.66-4.21,4.81-6.85,6.46c-5.95,3.71-11.68,1.72-12.5-5.18c-1.6-13.51-2.57-27.15-2.74-40.75
	c-0.11-8.89,1.42-17.84,2.62-26.71c1.44-10.73,7.26-19.37,13.85-27.64c10.38-13.04,12.86-27.84,11.81-44.42
	c-1.86-29.4-14.45-55.38-23.55-82.54c-7.08-21.14-14.94-42.22-19.32-63.97c-2.73-13.57,0.15-28.33,1.01-42.53
	c0.25-4.15,0.64-7.59-2.13-11.32c-6.8-9.17-8.13-20.21-7.72-31.07c0.96-25.13-5.01-48.66-15.62-71.04
	c-7.74-16.33-16.69-32.09-24.8-47.52c-4.14,13.01-8.35,26.71-12.88,40.29c-2.35,7.06-5.27,13.94-7.94,20.9
	c-3.83,9.99-6.58,20.05-6.37,31.04c0.47,24.78,0.34,49.59,0,74.37c-0.09,6.61,2.11,11.94,5.26,17.4
	c6.72,11.64,13.52,23.5,14.38,37.2c0.53,8.35,0.07,17.14-2.03,25.18c-2.68,10.26-2.36,19.65,0.61,29.77
	c8.33,28.35,11.38,57.37,11.97,86.99c0.32,15.91,5.53,31.75,8.85,47.56c6.55,31.2,14.45,62.17,19.71,93.58
	c5.91,35.28,5.68,71.04,3.29,106.74c-0.98,14.68-1.68,29.39-2.82,44.06c-1.2,15.5-2.56,31-4.21,46.46
	c-1.79,16.72-3.97,33.4-6.04,50.09c-1.1,8.87-2.54,17.71-3.38,26.6c-0.5,5.29-0.28,10.67-0.15,16c0.2,8.1,1.7,16.35,0.56,24.24
	c-0.94,6.47,1.04,11.58,2.86,17.17c6.25,19.19,13.41,38.17,18.29,57.71c5.41,21.67,5.56,44.16,2.51,66.2
	c-5.31,38.32-12.64,76.36-17.68,114.71c-2.6,19.79-3.56,40.06-2.44,59.96c0.68,12.12,6.67,23.96,10.47,35.86
	c0.83,2.61,3.46,4.89,3.62,7.42c0.71,11.17,9.48,15.12,17,20.51c10.03,7.18,19.6,15.01,29.63,22.19c3.1,2.22,6.96,4.21,10.65,4.6
	c8.91,0.93,13.44,3.49,15.09,10.18c1.79,7.26-0.27,11.18-8.2,16.02c-1.16,0.71-2.72,1.85-2.88,2.96
	c-1.79,12.59-12.02,16.35-21.61,20.34c-8.22,3.42-17.19,5.12-25.26,8.81c-8.64,3.95-17.17,8.61-24.77,14.27
	c-10.22,7.61-21.41,11.62-33.81,11.68c-12.83,0.06-25.58-1.3-37.3-7.47c-8.29-4.36-12.2-11.45-13.66-20.38
	c-2.82-17.25,0.41-33.98,4.41-50.57c2.79-11.57,6.6-22.9,9.42-34.47c0.78-3.21,0.81-7.54-0.76-10.22
	c-5.58-9.54-5.3-18.88-3.08-29.46c6.2-29.54,3.44-58.92-4.08-87.98c-7.99-30.88-21.54-59.65-33.28-89.13
	c-6.58-16.53-12.22-33.74-15.49-51.16c-1.78-9.47,1.47-20.22,3.86-30.06c4.16-17.13,9.59-33.95,14.03-51.02
	c0.74-2.83,0.02-6.74-1.45-9.34c-12.95-22.85-25.73-45.82-30.64-71.96c-2.47-13.15-3.24-26.62-4.54-39.97
	c-1.78-18.24-3.29-36.5-4.99-54.74c-1.28-13.79-2.02-27.67-4.14-41.33c-3.97-25.62-8.34-51.19-13.32-76.62
	c-4.29-21.9-9.83-43.56-14.44-65.4c-1.34-6.36-1.39-12.99-2.11-20.39c1.25,23.89-6.64,45.36-10.93,67.45
	c-6.37,32.76-13.39,65.44-18.24,98.44c-3.78,25.68-4.43,51.8-6.96,77.68c-1.98,20.32-3.51,40.8-7.42,60.79
	c-4.54,23.23-15.8,44.1-28.47,63.96c-3.01,4.72-3.16,8.49-1.72,13.51c5.35,18.58,10.18,37.31,15.43,55.92
	c3.95,14.02,3.3,27.79-1.86,41.29c-8.81,23.05-17.64,46.1-26.82,69c-11.12,27.74-20.7,55.92-24.54,85.69
	c-2.58,20.03-1.84,40.09,3.14,59.69c2.03,8.01,1.77,15.1-2.47,22.02c-3.22,5.25-3.24,10.14-1.5,16.28
	c4.97,17.57,9.49,35.34,12.75,53.3c1.73,9.52,1.3,19.67,0.29,29.37c-0.96,9.25-5.88,16.96-15.12,20.69
	c-19.44,7.85-39.21,9.57-58.92,1.46c-5.4-2.22-10.25-6.14-14.87-9.87c-12.86-10.38-29.07-12.83-43.7-19.02
	c-4.51-1.91-8.95-4.02-13.27-6.32c-2.03-1.08-4.44-2.44-5.41-4.33c-3.7-7.23-8.26-13.34-14.49-18.89
	c-5.84-5.21-0.53-19.09,7.7-19.39c10.61-0.39,16.91-6.42,24.22-12.28c9.12-7.31,18.94-13.77,28.63-20.33
	c4.72-3.19,7.97-6.66,9.44-12.66c1.59-6.49,5.43-12.4,8.1-18.65c9.19-21.54,9.53-44.16,6.35-66.68
	c-5.34-37.9-12.81-75.51-17.52-113.48c-2.83-22.77-3.46-46.03-2.65-68.98c0.75-21.31,7.28-41.82,15.52-61.61
	c3.27-7.86,5.87-16,8.73-24.03c0.42-1.18,0.81-2.46,0.82-3.69c0.09-11.25,0.65-22.53-0.01-33.74c-0.78-13.17-2.55-26.28-4.04-39.4
	c-1.94-17.13-4.14-34.23-6.01-51.36c-1.77-16.31-3.28-32.64-4.85-48.97c-0.61-6.36-1.41-12.73-1.53-19.11
	c-0.56-30.15-2.66-60.41-0.84-90.43c1.65-27.28,6.76-54.46,11.95-81.38c5.3-27.51,12.71-54.6,18.82-81.96
	c1.47-6.58,2.2-13.52,1.98-20.26c-1.01-31.54,5.85-61.78,14.13-91.86c0.64-2.31,1.13-5.16,0.36-7.28
	c-9.92-27.35-4.1-52.25,10.77-76.15c2.64-4.23,4.13-9.86,4.22-14.88c0.43-23.54-0.03-47.1,0.29-70.65
	c0.15-10.62-1.31-20.65-5.02-30.68C1342.45,633.51,1335.13,611.57,1327.55,589.81z M1610.74,839.43c-0.07,0.57-0.14,1.15-0.22,1.72
	c-15.2-7.64-30.53-15.06-45.53-23.1c-3.67-1.97-6.8-2.71-10.7-1.84c-13.09,2.93-20.51-0.1-25.57-12.66
	c-4.51-11.18-7.35-23.06-10.65-34.71c-9.4-33.21-17.69-66.65-20.24-101.24c-0.14-1.92-1.05-4.45-2.48-5.5
	c-4.36-3.21-5.22-7.43-5.2-12.37c0.1-19.48,0.23-38.97,0.04-58.45c-0.3-31.22-0.26-62.46-1.46-93.65
	c-0.89-23.03-2.77-45.95,0.14-68.99c2.44-19.32,9.55-36.22,23.7-49.71c6.4-6.1,13.61-11.34,19.63-16.29
	c-8.41-8-17.55-15.45-25.16-24.22c-11.74-13.54-18.42-29.85-19.16-47.77c-0.81-19.45-0.38-38.96-0.03-58.44
	c0.07-4.08,1.54-8.4,3.37-12.11c2.71-5.51,8.33-6.58,12.72-2.36c3.47,3.34,6.5,7.39,8.8,11.63c5.19,9.55,9.45,19.61,14.78,29.08
	c4.47,7.94,9.91,15.33,14.92,22.97c0.4-0.3,0.8-0.59,1.2-0.89c-2.51-12.26-5.01-24.51-7.52-36.77c0.62-0.14,1.23-0.29,1.85-0.43
	c1.44,4.74,2.87,9.48,4.5,14.87c8.75-12.54,4.38-26.26,6.19-40.38c1.44,2.05,2.19,2.96,2.78,3.97c3.86,6.62,6,6.87,10.24,0.53
	c3.55-5.3,6.17-11.25,9.88-16.43c7.89-11.01,5.58-22.73,2.85-34.41c-1.15-4.9-4.03-5.38-7.99-1.85c-2.8,2.49-5.35,5.27-8.78,8.68
	c-0.25-2.76-0.72-4.42-0.48-5.96c2.65-17.16,0.18-34.09-2.86-50.86c-3.31-18.28-10.9-34-29.24-42.24
	c-20.53-9.23-41.29-12.24-63.28-5.33c-20.28,6.37-35.19,17.5-40.68,39.17c-4.86,19.2-6.42,38.63-5.58,58.32
	c0.08,1.94,0.55,3.86,0.83,5.78c-0.55,0.26-1.1,0.53-1.66,0.79c-2.82-3.01-5.41-6.3-8.55-8.94c-2.03-1.71-5.56-3.45-6.35,1.13
	c-1.36,7.84-4.33,16.44-2.38,23.56c2.8,10.18,9.08,19.51,14.56,28.79c3.72,6.3,6.82,5.68,10.14-1.1c0.48-0.99,1.31-1.81,3.03-4.14
	c0.79,14.66-2.74,28.36,5.58,41.06c1.81-5.75,3.36-10.69,4.91-15.63c0.62,0.14,1.24,0.29,1.85,0.43
	c-2.58,12.49-5.17,24.99-8.09,39.13c2.45-2.83,4.27-4.34,5.35-6.26c7.75-13.72,15.27-27.57,23.05-41.26
	c3.04-5.34,6.04-10.88,10.03-15.48c5.55-6.4,12.34-5.09,15.44,2.7c1.53,3.86,2.46,8.21,2.54,12.36c0.3,15.41-0.03,30.83,0.17,46.24
	c0.35,26.89-9.09,49.53-28.93,67.71c-5.4,4.95-11.17,9.49-17.02,14.43c1.21,0.8,2.07,1.4,2.96,1.95
	c29.97,18.3,42.93,45.95,42.79,80.08c-0.11,25.84-1.95,51.67-2.21,77.51c-0.42,41.74-0.17,83.49-0.21,125.24
	c0,5.82,0.21,11.63-6.17,14.99c-1.02,0.54-1.27,2.94-1.5,4.53c-2.12,14.51-3.31,29.22-6.4,43.52c-5.47,25.35-11.87,50.5-18.33,75.62
	c-1.84,7.16-4.75,14.17-8.08,20.79c-3.62,7.18-10.03,12.05-18.24,10.12c-8.69-2.05-15.7-0.5-22.27,5.01
	c-0.31,0.26-0.81,0.28-1.19,0.47c-10.54,5-21.08,10-31.62,15c2.96-0.51,5.68-1.63,8.5-2.39c16.61-4.5,31.92-2.92,43.87,10.84
	c10.63,12.25,21.64,24.31,30.91,37.56c11.7,16.73,23.08,33.98,27.25,54.57c2.55,12.62,4.61,25.35,6.91,38.13
	c0.65-5.29,1.14-10.68,2-16.02c2.87-17.89,6.93-35.19,15.85-51.49c11.59-21.17,25.97-40.03,41.92-57.88
	c8.67-9.71,18.01-19.09,32.41-17.53C1589.81,834.51,1600.24,837.35,1610.74,839.43z M1323.28,536.95
	c2.98,14.07,6.07,27.09,8.44,40.24c5.28,29.34,15.16,57.25,27.43,84.18c13.68,30.03,29.41,59.13,43.21,89.12
	c6.27,13.62,10.08,28.38,14.92,42.65c1.57,4.62,2.46,9.51,4.41,13.94c2.86,6.5,8.51,8.04,13.13,2.83
	c4.23-4.77,7.72-10.79,9.69-16.86c4.93-15.15,9.59-30.48,12.94-46.04c5.5-25.52,10.02-51.26,14.56-76.97
	c0.61-3.43,0.03-8.05-1.89-10.79c-12.63-17.94-26.32-35.16-38.63-53.31c-13.49-19.89-27.36-39.72-34.93-62.94
	c-1.1-3.36-2.93-3.62-5.76-3.04c-7.7,1.58-15.35,3.77-23.13,4.47C1352.78,545.75,1337.72,546.88,1323.28,536.95z M1579.14,539.44
	c-4.02,8.74-7.32,17.31-11.74,25.26c-18.37,33.05-39.97,63.94-63.67,93.39c-1.44,1.79-2.46,4.67-2.24,6.9
	c1.19,12.27,1.82,24.72,4.52,36.69c6.59,29.22,13.95,58.27,21.59,87.23c1.8,6.82,5.26,13.49,9.21,19.39
	c4.53,6.75,11.29,5.75,14.93-1.49c1.23-2.44,2.07-5.11,2.84-7.74c3.09-10.57,4.92-21.68,9.34-31.65
	c12.59-28.41,25.59-56.67,39.6-84.39c17.66-34.94,31.67-71.02,39.02-109.56c2.21-11.62,4.8-23.16,7.39-35.62
	C1625.93,550.17,1602.62,544.6,1579.14,539.44z M1233.54,1819.51c-6.96,2.03-9.13,4.14-9.51,8.72c-0.41,4.99,3.56,6.21,6.85,8.16
	c1.69,1,4.27,2.5,4.34,3.88c0.59,11.18,8.79,14.76,17.31,18.14c17.9,7.1,36.94,11.31,52.53,23.96c19.72,16,41.8,12.75,63.73,5.24
	c6.95-2.38,11.71-8.09,12.06-15.26c0.6-12.03,1.3-24.41-0.82-36.14c-3.55-19.64-9.35-38.87-14.08-58.3
	c-7.68-31.56-6.81-62.91,2.28-94.1c4.92-16.88,9.58-33.84,14.74-52.1c-12.22,7.29-22.03,2.9-32.11-4.54c0,19.55,0,37.83,0,56.11
	c-0.85,0-1.71,0-2.56,0.01c0-26.05,0-52.09,0-79.03c-12.77,8.02-23.57,7.48-34.48-1.06c1.61,9.79,3.37,18.73,4.52,27.75
	c4.15,32.5,9.63,64.94,11.6,97.58c1.39,23.04-1.66,46.41-3.63,69.55c-0.66,7.73-4.1,15.23-6.26,22.83
	c-0.62-0.14-1.24-0.29-1.86-0.43c7.68-32.12,10.45-64.59,8.25-95.87c-7.89,10.98-16.43,22.56-24.63,34.37
	c-5.44,7.83-8,16.4-4.94,26.02c1.18,3.71,1.84,7.59,2.73,11.4c-0.49,0.18-0.98,0.35-1.47,0.53c-2.31-4.62-4.63-9.24-7.41-14.78
	c-19.73,14.54-38.94,28.71-58.16,42.88c-0.39-0.41-0.77-0.82-1.16-1.23C1232.02,1822.6,1232.61,1821.39,1233.54,1819.51z
	 M1647.77,1725.29c0,13.85-0.86,30.55,0.24,47.13c1.09,16.38,4.15,32.62,6.53,50.3c-1.15-2.72-1.88-4.31-2.5-5.94
	c-6.65-17.39-8.24-35.78-8.58-54.01c-0.39-21.09,0.86-42.26,2.41-63.32c1.17-15.88,3.77-31.67,6.04-47.45
	c2.3-16.07,4.97-32.09,7.58-48.85c-10.74,9.04-21.73,8.61-33.08,2.51c-0.66,26.16-1.31,51.51-1.95,76.86c-0.64,0-1.27,0-1.91,0
	c0-18.09,0-36.18,0-54.92c-16.31,9.49-17.34,9.65-31.63,5.09c3.78,14.01,6.73,28.15,11.4,41.7c13.61,39.5,12.62,78.98,1.56,118.71
	c-6.51,23.36-13.92,46.52-12.7,71.33c0.7,14.16,5.33,21.12,18.99,25.25c4.26,1.28,8.62,2.61,13.02,2.94
	c14.94,1.13,29.81,2,42.68-8.43c12.56-10.18,26.9-16.97,42.56-21.21c6.33-1.71,12.31-4.72,18.41-7.23
	c5.45-2.25,9.79-6.02,10.44-11.98c0.51-4.68,2.27-6.8,6.6-8.37c2.27-0.82,4.98-3.99,5.13-6.25c0.23-3.56-0.63-7.86-5.74-8.6
	c-0.91-0.13-1.77-0.64-3.28-1.21c1.03,2,1.67,3.23,3,5.81c-12.83-5.2-20.87-14.51-30.44-21.68c-9.76-7.32-20.14-13.82-29.94-20.48
	c-2.57,4.88-4.78,9.08-7,13.29c-0.5-0.24-1-0.48-1.5-0.71c0.58-2.2,1.06-4.43,1.74-6.61c3.47-11.07,2.4-21.14-4.89-30.75
	C1662.29,1746.79,1654.41,1734.79,1647.77,1725.29z M1492.45,637.36c1.28,6.08,2.16,10.29,3.04,14.5c4.65-2.62,9.31-5.24,13.95-7.89
	c0.35-0.2,0.57-0.63,0.81-0.98c17.28-25.34,34.86-50.48,51.74-76.09c15.74-23.88,21-49.99,14.37-78.18
	c-3.84-16.33-7.44-32.72-11.02-49.11c-3.3-15.1,3.2-28.37,16.88-32.22c8.92-2.51,18.38-3.07,27.6-4.48c9.02-1.38,18.25-2,26.97-4.41
	c4.23-1.17,7.83-5.4,11.09-8.85c1.29-1.36,0.87-4.34,1.23-6.58c-2.21-0.34-4.43-1.02-6.63-0.95c-4.46,0.13-8.92,1.15-13.34,0.93
	c-10.84-0.55-21.67-1.53-32.49-2.44c-19.01-1.6-37.32-5.85-54.69-13.99c-2.07-0.97-5.56-1.03-7.44,0.1
	c-10.7,6.4-19.88,14.6-27.13,24.86c-18.76,26.54-18.76,56.77-17.07,87.27c0.79,14.24,2.66,28.44,3,42.69
	c0.35,15.04-0.73,30.1-0.84,45.15C1492.33,590.81,1492.45,614.94,1492.45,637.36z M1325.13,381.72c-0.66,0.63-1.31,1.26-1.97,1.89
	c1.71,3.39,2.63,7.74,5.31,9.92c3.81,3.1,8.72,5.76,13.5,6.57c13.82,2.34,27.83,3.55,41.73,5.4c18.54,2.46,27.71,15.01,24.11,33.32
	c-3.52,17.93-7.64,35.75-11.15,53.68c-4.46,22.72-2.98,44.96,9.71,64.86c18.2,28.55,37.19,56.61,56.25,84.6
	c2.72,4,7.56,6.75,11.83,9.43c2.98,1.87,5.45,0.55,5.5-3.37c0.32-24.58,0.77-49.17,0.83-73.75c0.04-19.46-1.17-38.95-0.48-58.39
	c0.92-25.74,5.22-51.3,2.41-77.25c-3.34-30.82-16.92-55.05-43.28-71.66c-1.89-1.19-5.44-1.35-7.51-0.42
	c-30.26,13.66-62.41,16.24-94.95,16.5C1333.03,383.08,1329.07,382.19,1325.13,381.72z M1483.41,989.47
	c-1.19-12.28-1.82-24.22-3.62-35.98c-1.92-12.54-4.26-24.93-10.13-36.62c-12.45-24.82-29.44-27.31-50.13-18.8
	c-17.46,7.18-34.15,16.42-50.64,25.69c-10.24,5.76-12.48,12.48-6.57,23.45c7.45,13.83,8.92,29.13,5.65,44.18
	c-3.51,16.14-9.33,31.76-13.38,47.81c-2.73,10.85-4.78,21.97-5.91,33.1c-0.84,8.27,4.02,12.21,12.2,11.62
	c2.94-0.21,5.95-0.7,8.74-1.63c15.54-5.17,31.11-10.3,46.52-15.85c12.99-4.68,26.07-9.31,38.6-15.06
	c13.21-6.06,22.62-16.18,25.07-31.09C1481.51,1010.01,1482.26,999.59,1483.41,989.47z M1489.32,988.44
	c0.59,0.09,1.17,0.17,1.76,0.26c0,4.49-0.33,9.01,0.05,13.47c2.3,26.95,5.42,40.97,36.87,53.66c20.08,8.1,40.83,14.57,61.38,21.51
	c7.82,2.64,15.8,4.95,23.87,6.62c5.82,1.21,10.27-1.75,11.09-7.83c0.68-4.99,1.31-10.44,0.04-15.17
	c-4.51-16.81-9.82-33.4-14.87-50.05c-6.82-22.46-8.3-44.67,2.58-66.45c3.95-7.91,3.27-13.27-4.32-18.05
	c-11.67-7.36-23.89-13.89-36.2-20.16c-8.3-4.23-16.93-8.11-25.81-10.83c-12.14-3.72-24.67-2.31-32.75,7.87
	c-6.72,8.46-12.48,18.83-14.98,29.24C1493.63,950.79,1492.07,969.76,1489.32,988.44z M1658.38,1403.35
	c0.61-0.11,1.22-0.21,1.83-0.32c-0.55-6.29-1.94-12.65-1.49-18.87c1.52-21,3.59-41.97,5.64-62.93c1.8-18.43,5.3-36.84,5.33-55.26
	c0.02-16.01-3.84-32.01-5.87-48.03c-4.45-35.07-11.12-69.69-21-103.64c-3.4-11.69-7.85-23.08-12.08-35.37
	c-5.43,7.61-6.63,9.09-14.58,8.1c-9.81-1.23-19.46-3.95-29.07-6.46c-3.31-0.86-5.62-1.12-5.89,2.85c-0.57,8.3-1.54,16.64-1.14,24.91
	c0.65,13.39,1.82,26.79,3.57,40.08c3.31,25.07,6.6,50.16,10.99,75.06c6.37,36.14,17.67,70.92,31.75,104.76
	C1636.82,1353.37,1647.69,1378.32,1658.38,1403.35z M1342.28,1078.18c-5.91,19.21-12.56,36.77-16.62,54.92
	c-6.54,29.22-11.81,58.74-16.74,88.28c-2.72,16.32-4.22,32.92-5.17,49.45c-0.48,8.4,1.39,16.95,2.37,25.41
	c1.86,16.07,3.98,32.1,5.76,48.18c1.65,14.97,5.16,29.84,2.2,45.11c-0.85,4.4-0.13,9.11-0.13,13.67c4.87-9.03,8.96-18.1,12.93-27.21
	c16.94-38.85,34.25-77.68,44.13-119.01c6.9-28.89,11.88-58.31,16.29-87.71c3.18-21.22,4.3-42.77,5.73-64.22
	c0.56-8.47,0.87-17.24-2.47-25.51c-8.24,2.54-15.6,5.57-23.26,6.97C1358.42,1088.13,1348.83,1089.95,1342.28,1078.18z
	 M1308.73,490.38c-20.53,8.16-40.52,15.64-58.44,28.18c-16.83,11.78-29.47,25.65-32.91,46.48c-3.4,20.53-7.02,41.02-10.02,61.6
	c-1.13,7.75-2.57,16.16-0.73,23.49c3.82,15.2,9.57,29.93,14.88,44.73c1.46,4.06,4.15,7.68,7.19,13.17c1.02-3.95,1.67-5.88,1.98-7.86
	c0.32-2.1,0.14-4.28,0.47-6.38c4.09-25.84,12.4-50.4,23.7-73.88c3.64-7.56,8.37-14.88,13.93-21.11c2.51-2.81,8.99-4.65,12.44-3.43
	c5.05,1.79,5.24,7.83,3.66,12.86c-6.97,22.13-13.73,44.33-21.26,66.27c-3.62,10.54-8.76,20.55-13.69,31.89
	c18.64-6.19,30.6-17.05,36.24-35.09c4.43-14.15,9.44-28.2,15.34-41.79c5.67-13.06,12.86-25.45,19.32-38.17
	c4.27-8.4,6.1-16.74,2.98-26.37c-2.93-9.04-3.86-18.71-5.73-28.1C1315.02,521.52,1311.9,506.17,1308.73,490.38z M1744.12,705.76
	c0.52,0.13,1.04,0.25,1.56,0.38c1.72-2.88,3.92-5.57,5.07-8.66c4.98-13.36,9.79-26.79,14.35-40.29c1.34-3.96,2.41-8.29,2.29-12.41
	c-0.22-7.86-1.64-15.68-2.12-23.54c-1.25-20.47-4.36-40.58-10.32-60.26c-3.93-12.97-9.07-24.45-20.3-33.6
	c-20.86-17-44.43-27.95-69.61-36.47c-0.61,1.72-1.3,3.09-1.58,4.53c-4.39,22.12-8.87,44.22-13,66.39
	c-1.19,6.37-3.52,13.68-1.58,19.24c4.62,13.21,10.62,26.13,17.66,38.25c9.86,16.96,17.24,34.62,21.2,53.81
	c3.04,14.75,20.24,30.3,35.82,32.35c-2.23-4.43-4.73-8.4-6.31-12.71c-8.85-24.16-17.64-48.35-26.04-72.67
	c-1.85-5.35-2.73-11.23-2.9-16.91c-0.23-7.81,5.37-11.56,11.75-7.36c5.45,3.59,10.89,8.67,13.8,14.37
	c10.95,21.47,20.13,43.74,25.13,67.47C1740.94,686.98,1742.42,696.39,1744.12,705.76z M1407.7,1423.01c0.8,0.23,1.61,0.47,2.41,0.7
	c4.8-10.34,10.93-20.3,14-31.13c2.8-9.86,3.15-20.66,3.03-31.03c-0.23-19.18-1.45-38.36-2.53-57.52
	c-0.62-11.05-1.61-22.09-2.75-33.11c-2.09-20.29-1.8-40.58,2.49-60.47c3.23-14.94,6.77-29.36,4.18-45.03
	c-4.38-26.5-3.38-53.12,2.38-79.44c1.55-7.1,3.34-14.14,5.29-22.38c-13.66,4.71-26.14,8.91-38.49,13.45
	c-1.22,0.45-2.35,3.09-2.3,4.67c0.2,6.6,1.65,13.24,1.21,19.77c-1.58,23.16-3.26,46.33-5.8,69.4
	c-3.88,35.14-10.77,69.72-21.28,103.55c-1.87,6.01-3.07,12.63-2.7,18.86c0.99,16.89,5.49,33.07,11.78,48.8
	C1389.28,1368.72,1402.6,1394.37,1407.7,1423.01z M1537.91,1063.79c2.71,14.3,5.65,27.57,7.67,40.98c2.91,19.32,2.02,38.71,0,58.1
	c-1.28,12.3-3.27,24.24,0.7,36.97c4,12.83,5.8,26.73,6.12,40.23c0.44,18.3-1.45,36.65-2.33,54.98c-1.24,25.78-2.79,51.55-3.59,77.34
	c-0.59,19.04,6.6,35.66,18.25,50.78c3.67-11.73,6.76-23.39,10.95-34.65c8.52-22.91,18.35-45.36,26.26-68.48
	c5.5-16.07,6.24-32.81,0.76-49.58c-3.89-11.89-7.35-24.05-9.47-36.36c-4.9-28.47-9.37-57.03-13.06-85.68
	c-2.85-22.17-5.3-44.49-2.29-66.95c0.19-1.41-1.28-4.02-2.56-4.49C1562.97,1072.39,1550.49,1068.16,1537.91,1063.79z M1299,366.32
	c3.27,2.47,5.79,5.6,8.95,6.54c9.31,2.77,18.77,5.81,28.36,6.67c19.01,1.7,37.82-1.53,56.5-5.04c27.53-5.17,52.33-14.85,69.35-39.02
	c8.95-12.71,17.06-25.5,17.96-41.56c0.58-10.43,1.48-20.86,1.64-31.29c0.18-11.49-0.02-23.01-0.64-34.49
	c-0.35-6.41-5.88-8.52-10.93-4.51c-1.95,1.55-3.77,3.57-4.94,5.76c-4.01,7.5-7.77,15.14-11.5,22.79
	c-12.88,26.39-31.45,46.78-59.02,58.64c-19.36,8.33-38.3,17.67-57.13,27.16C1323.54,345.06,1310.69,354.1,1299,366.32z
	 M1674.74,365.27c-8.58-6.64-15.97-14.15-24.84-18.88c-24.26-12.93-49.07-24.84-73.81-36.85c-13.98-6.79-26.66-15.08-36.84-27.04
	c-12.47-14.67-20.17-32.02-28.6-49.01c-1.76-3.55-4.19-7.06-7.13-9.66c-5.09-4.49-9.74-2.68-11.12,3.96
	c-0.73,3.52-1.31,7.17-1.25,10.75c0.25,14.32,1.09,28.63,1.12,42.94c0.03,17.35,4.15,33.24,14.37,47.47
	c10.17,14.15,20.86,27.77,37.7,34.45c33.81,13.4,68.82,19.28,105.1,14.84C1658.47,377.11,1667.3,373.99,1674.74,365.27z
	 M1398.63,1397.72c-0.86-0.05-1.71-0.11-2.57-0.16c-4.35,7.55-8.9,15-13.01,22.68c-19.84,37.18-28.23,77.44-30.5,119.04
	c-1.33,24.54-1.11,49.16-1.45,73.75c-0.15,10.73,5.33,16.61,16.95,18.72c7.57,1.38,16.56-4.18,19.54-12.01
	c1.89-4.97,3.89-9.9,5.82-14.85c8.98-22.99,17.91-45.99,26.94-68.96c5.77-14.69,5.43-29.41,1.12-44.41
	c-6.23-21.65-12.33-43.35-17.91-65.18C1401.17,1416.99,1400.23,1407.27,1398.63,1397.72z M1576.53,1397.03
	c-0.96,2.1-1.72,3.18-1.94,4.37c-1.56,8.1-2.5,16.36-4.58,24.32c-5.21,19.94-10.44,39.89-16.56,59.56
	c-5.98,19.22-6.53,37.81,1.44,56.63c6.63,15.65,12.42,31.65,18.65,47.47c4.21,10.69,8.4,21.4,12.87,31.98
	c3.06,7.24,12.4,11.71,20.07,10.05c10.81-2.34,15.98-7.95,15.82-17.62c-0.22-13.22-1.02-26.45-0.91-39.66
	c0.26-30.15-1.36-60.1-7.83-89.64C1606.77,1453.42,1594.94,1424.47,1576.53,1397.03z M1748.44,534.1c0.82-0.14,1.63-0.29,2.45-0.43
	c2.16-14.42,6.69-28.97,5.96-43.24c-1.38-27.05-9.54-53.03-18.54-78.59c-5.75-16.33-20.04-22.34-34.14-28.57
	c-1.23-0.54-2.99-0.21-4.42,0.11c-23.43,5.24-53.44,26.88-55.33,55.78c-1.04,15.87,5.47,40.84,24.49,48.83
	c6.66,2.8,13.16,6.03,19.94,8.49c17.51,6.37,34.63,13.3,48.17,26.78C1740.75,526.96,1744.63,530.49,1748.44,534.1z M1224.55,535.73
	c1.79-2.36,2.56-3.65,3.58-4.68c12.38-12.56,26-23.28,42.85-29.37c8.8-3.18,17.38-6.97,26.21-10.05
	c28.28-9.87,36.99-39.37,29.38-63.12c-7.75-24.18-26.88-36.25-49.5-44.02c-2.16-0.74-5.08-1.86-6.75-1.02
	c-8.86,4.47-17.87,8.87-25.97,14.54c-7.89,5.53-10.32,15.05-12.57,23.84c-5.52,21.58-11.14,43.2-15.14,65.09
	C1213.72,503.02,1220.07,518.41,1224.55,535.73z M1639.52,1367.55c-1.61,1.29-2.38,1.69-2.86,2.33
	c-11.89,15.6-21.05,32.54-24.84,51.98c-2.43,12.48-5.52,24.93-1.3,37.74c8.64,26.23,12.14,53.43,13.99,80.81
	c1.21,17.89,1.11,35.87,1.38,53.82c0.06,3.95,0.91,6.71,4.54,9.02c11.84,7.55,27.06,2.33,30.51-11.57
	c2.61-10.47,3.95-21.3,5.24-32.05c1.78-14.79,3.89-29.63,4.19-44.48c0.45-21.49,1.28-43.27-1.6-64.45
	c-2.2-16.12-9.69-31.57-15.25-47.17C1649.28,1391.61,1644.36,1379.92,1639.52,1367.55z M1333.69,1366.51
	c-9.12,24.86-18.2,48.03-26,71.62c-3.22,9.74-4.86,20.36-5.17,30.64c-0.53,17.48-0.23,35.06,1.17,52.49
	c1.8,22.45,4.74,44.83,7.76,67.16c1.15,8.52,6.15,14.82,14.9,17.48c12.01,3.65,21.18-2.97,21.38-15.26
	c0.24-14.1,0.84-28.2,1.2-42.31c0.58-23.05,2.96-45.9,8.58-68.29c4.25-16.93,9.44-33.48,5.7-51.45
	C1358.52,1406.09,1350.07,1385.64,1333.69,1366.51z M1180.67,852.17c-0.63,5.1-2.35,14.99-2.95,24.94
	c-0.61,10.15-0.13,20.36-0.12,30.55c0.01,17.5-0.37,35.01,0.13,52.5c1.02,35.64,2.31,71.28,3.95,106.9
	c0.48,10.36,0.91,21.21,4.22,30.86c6.93,20.26,23.09,33.67,39.3,47.61c1.13-2.21,2.17-3.8,2.8-5.53c3.45-9.52-1.14-16.67-7.58-22.69
	c-6.92-6.47-12.14-13.33-12.71-23.35c-0.33-5.82-4.33-12.03-3.08-17.2c2.78-11.5,7.34-22.67,12.07-33.58
	c4.38-10.09,12.93-16.15,23.39-19.7c-2.8,3.08-5.61,6.16-8.41,9.24c0.75,0,1.49-0.01,2.24-0.01c1.79,7.26,3.93,14.45,5.29,21.78
	c1.61,8.67,2.93,17.26,10.14,23.49c4.68,4.04,6.81,3.59,7.97-2.6c0.98-5.22,1.65-10.59,1.61-15.88c-0.1-11.74-0.88-23.46-1.1-35.2
	c-0.23-12.82-4.58-23.89-11.93-34.41c-5.54-7.92-10.19-16.7-13.77-25.69c-8.35-20.98-9.94-43.39-12.77-65.81
	c-4.35,16.71-7.71,33.53-10.89,50.38c-1.78,9.47-2.83,19.29-13.12,24c-6.37,2.92-10.48,1.14-11.96-5.72
	c-1.38-6.42-2.56-13.03-2.61-19.56C1180.53,914.14,1180.67,880.79,1180.67,852.17z M1791.4,851.05c0.53,7.24,1.45,14.47,1.5,21.72
	c0.19,23.98,0.23,47.95-0.03,71.93c-0.07,6.56-0.84,13.23-2.35,19.6c-0.84,3.5-3.63,8.86-6.03,9.13c-3.78,0.43-8.13-2.41-11.88-4.5
	c-1.64-0.91-2.95-3.26-3.47-5.2c-1.95-7.37-3.59-14.82-5.21-22.27c-3.17-14.56-6.25-29.14-9.36-43.71
	c-3.03,14.6-4.02,28.86-6.77,42.77c-3.59,18.19-8.44,35.96-20.84,50.91c-4.68,5.64-8.63,13.33-9.42,20.48
	c-1.99,17.97-2.22,36.15-2.62,54.26c-0.11,4.84,1.73,9.72,2.83,15.38c10.44-4.41,13.49-12.33,15.29-21.04
	c2-9.65,1.16-20.13,8.74-27.98c-2.48-2.86-4.71-5.43-6.93-7.99c9.27,2.79,16.38,8.2,20.44,16.36c4.24,8.54,7.12,17.74,10.98,26.49
	c2.98,6.77,2.22,13.16,1,20.3c-2.28,13.29-7.15,24.23-17.5,33.46c-7.87,7.02-7.37,15.69-0.44,24.47
	c9.01-9.17,18.68-17.62,26.59-27.48c7.23-9.02,13.62-18.94,13.93-31.53c0.28-11.49,1.81-22.94,2.35-34.43
	c1.36-29.02,2.78-58.05,3.59-87.09c0.59-20.91-0.88-41.92,0.65-62.74C1797.72,884.8,1794.54,868.05,1791.4,851.05z M1620.41,935.02
	c-3.81,10.42-6.85,18.78-9.94,27.13c-3.67,9.94-3.76,20.31-1.44,30.28c3.17,13.63,7.75,26.93,11.72,40.37
	c4.5,15.26,8.01,30.9,13.68,45.7c15.87,41.38,24.96,84.31,31.37,127.96c1.9,12.89,3.84,25.78,5.77,38.66
	c1.14-5.67,2.11-11.3,2.22-16.95c0.61-31.77,1.46-63.55,1.36-95.32c-0.08-27.13-5.19-53.74-11.05-80.12
	c-6.04-27.19-12.74-54.24-19.13-81.35c-1.26-5.34-0.94-11.83-3.96-15.82C1635.48,948.23,1627.99,942.37,1620.41,935.02z
	 M1300.21,1245.47c0.52-0.01,1.04-0.01,1.57-0.02c1.15-7.54,2.17-15.1,3.47-22.62c4.48-25.97,7.74-52.25,13.95-77.8
	c7.26-29.86,16.96-59.13,25.92-88.56c4.58-15.04,9.5-29.99,14.92-44.75c9.62-26.18,6.27-50.91-7.99-75.69
	c-6.64,6.42-13.36,12.85-19.97,19.39c-0.83,0.82-1.22,2.23-1.5,3.44c-7.24,31.46-14.78,62.86-21.56,94.42
	c-7.08,32.95-12.31,66.25-11.8,100.06C1297.67,1184.07,1299.17,1214.76,1300.21,1245.47z M1455.13,895.24
	c0.49-0.46,0.97-0.92,1.46-1.38c-12.5-14.81-24.31-30.28-37.73-44.19c-9.32-9.67-21.92-14.74-35.68-10.41
	c-10.42,3.28-20.32,8.27-30.4,12.62c-6.15,2.66-9.43,7.5-10.71,14.08c-3.25,16.68-7.51,33.21-9.84,50.01
	c-1.49,10.74-0.28,21.85-0.28,33.02c7.22-6.08,14.15-11.95,21.13-17.77c4.34-3.62,8.39-7.78,13.21-10.6
	c11.21-6.54,22.69-12.63,34.27-18.51C1417.87,893.32,1435.46,885.61,1455.13,895.24z M1641.31,949.49c0.6-3.73,1.09-6.61,1.51-9.51
	c0.12-0.84,0.11-1.71,0.07-2.56c-1.27-25.61-5.69-50.7-12.86-75.29c-0.73-2.49-2.17-5.46-4.21-6.76
	c-7.15-4.58-14.44-9.11-22.16-12.59c-17.93-8.09-35.15-6.56-49.75,7.18c-7.86,7.39-14.44,16.19-21.28,24.6
	c-5.25,6.46-10,13.33-16.02,21.42c16.69-8.12,31.31-5.74,45.32,1.15c17.2,8.46,34.02,17.67,50.96,26.64
	c1.84,0.98,3.48,2.42,5.03,3.85C1625.59,934.73,1633.2,941.89,1641.31,949.49z M1225.37,742.92c-9.07,18.76-18.51,37.59-27.28,56.74
	c-4.41,9.64-9.38,19.56-10.95,29.83c-2.43,15.95-2.6,32.31-2.95,48.51c-0.45,20.76-0.26,41.53-0.06,62.29
	c0.06,6.37,0.51,12.85,1.8,19.06c0.58,2.8,3.37,6.75,5.68,7.15c2.41,0.42,5.86-2.39,8.08-4.59c1.65-1.63,2.38-4.45,2.93-6.87
	c1.26-5.58,2.26-11.23,3.2-16.88c4.63-27.87,16.59-53.99,18.33-82.68c1.26-20.88,8.56-40.71,15.94-60.28
	c0.76-2.01,0.52-5.11-0.55-6.96C1231.32,773.99,1226.23,758.85,1225.37,742.92z M1748.3,742.88c-1.52,14.96-5.22,29.54-13.32,42.61
	c-2.82,4.55-2.25,8.2-0.82,13.05c5.47,18.51,10.61,37.14,15.03,55.92c2.47,10.49,2.61,21.52,4.96,32.04
	c4.67,20.92,10.04,41.69,15.37,62.46c1.29,5.04,2.66,10.46,5.58,14.58c4.41,6.2,10.18,4.96,11.75-2.46
	c1.67-7.86,2.7-16.05,2.58-24.07c-0.47-30.12-1.86-60.23-2.21-90.36c-0.15-12.61-1.94-24.53-7.32-35.96
	C1769.31,788.18,1758.87,765.59,1748.3,742.88z M1446.34,1253.93c0.73-0.14,1.45-0.27,2.18-0.41c0.2-1.66,0.43-3.32,0.61-4.98
	c1.81-16.93,2.5-34.07,5.65-50.74c6.27-33.19,13.69-66.16,21.03-99.13c4.74-21.29,7.87-42.55,3.48-65.17
	c-8.27,12-18.84,20.17-31.38,25.39c-5.67,2.36-7.99,6.01-9.55,11.47c-8.84,30.98-11.3,62.42-6.49,94.26
	C1436.37,1194.43,1441.49,1224.16,1446.34,1253.93z M1494.95,1034.4c-0.69,0.11-1.38,0.22-2.06,0.33c0,13.14-1.74,26.56,0.37,39.35
	c3.98,24.08,10.76,47.68,15.31,71.68c5.1,26.91,9.11,54.03,13.37,81.09c1.43,9.08,2.15,18.28,3.2,27.42
	c2.64-9.73,4.37-19.53,6.51-29.22c7.99-36.08,14.43-72.43,11.03-109.51c-1.54-16.81-5.99-33.36-9.38-49.98
	c-0.36-1.79-2.09-4.01-3.74-4.71C1515.73,1055.02,1503.67,1046.95,1494.95,1034.4z M1568.88,436.79c0.36,2.89,0.5,7.42,1.56,11.73
	c3.14,12.78,7.28,25.35,9.76,38.25c1.23,6.39,3.7,11.65,7.51,16.48c1.02,1.29,3.77,2.58,5.06,2.1c18.78-7.04,35.85-16.83,49.1-32.27
	c1.11-1.29,1.45-3.76,1.23-5.57c-1.01-8.42-2.16-16.84-3.68-25.18c-0.5-2.73-1.57-6.21-3.59-7.66
	c-11.76-8.42-23.84-16.39-35.92-24.34c-1.49-0.98-3.64-1.43-5.46-1.38C1578.01,409.38,1568.87,418.84,1568.88,436.79z
	 M1405.98,437.2c-0.6-0.15-1.2-0.3-1.8-0.45c0-2.57,0.16-5.14-0.03-7.69c-0.96-12.89-18.47-24.1-29.83-19
	c-14.14,6.35-26.74,15-37.38,26.33c-1.32,1.4-2.18,3.55-2.53,5.49c-1.5,8.34-2.86,16.72-3.95,25.13c-0.26,2.02-0.03,4.79,1.17,6.21
	c13,15.38,30.03,24.85,48.49,31.95c1.43,0.55,4.32-0.93,5.7-2.31c6.04-6.03,6.92-14.27,8.88-22.06
	C1398.38,466.24,1402.21,451.73,1405.98,437.2z M1742.91,944.31c16.99-56.89-7.39-169.97-41.89-195c-3.91,19.4-5.1,38.72,1.16,57.54
	c8.93,26.84,18.66,53.42,28.31,80.01C1737.13,905.15,1742.63,923.64,1742.91,944.31z M1273.54,749.42
	c-0.94-0.07-1.88-0.14-2.82-0.22c-20.68,27.92-33.46,59.25-40.91,93.15c-7.49,34.08-5.8,84.98,0.54,99.97
	c0.72-6.33,0.47-13.83,2.55-20.62c6.96-22.73,14.6-45.25,22.27-67.75c7.74-22.7,18.62-44.57,19.47-69.11
	C1275.05,773.06,1273.96,761.23,1273.54,749.42z M1605.37,1440.91c-0.06,0.14,0.23-0.24,0.25-0.63
	c1.55-27.75,11.79-52.04,28.81-73.81c1.56-2,1.39-6.44,0.4-9.16c-3.54-9.8-7.93-19.3-11.71-29.02
	c-4.48-11.51-8.67-23.13-12.58-33.61c-3.08,12.67-5.35,26.17-9.72,38.96c-6.32,18.5-14.22,36.46-21.23,54.73
	c-0.74,1.92-0.86,4.82,0.07,6.53C1588.09,1410.39,1596.83,1425.72,1605.37,1440.91z M1368.15,1442.02
	c6.5-12.64,11.58-25.78,19.5-36.91c7.11-10,6.47-17.83,1.74-28.3c-12.12-26.83-23.94-53.95-25.37-83.66
	c-8.93,22.31-18.03,44.92-26.92,67.62c-0.53,1.35,0.16,3.81,1.16,5.05C1356.14,1388,1366.44,1413.14,1368.15,1442.02z
	 M1220.76,703.46c-6.63,16.77-18.5,28.83-30.86,40.24c-14.36,13.25-19.6,30.23-21.12,48.57c-2.15,25.88,1.4,51.51,5.14,77.55
	c2.96-21.45,7.39-42.01,16.05-61.35c6.52-14.57,14.48-28.51,20.65-43.21c6.32-15.04,11.3-30.65,16.67-46.08
	c0.61-1.75,0.45-4.22-0.34-5.89C1225.4,710.07,1223.16,707.18,1220.76,703.46z M1799.14,869.22c0.63,0.02,1.26,0.03,1.9,0.05
	c1.33-22.52,3.28-45.03,3.83-67.57c0.59-24.19-6.44-45.61-25.4-62.34c-11.16-9.84-21.23-20.93-26.38-35.38
	c-7.53,7.14-8.7,15.09-4.81,24.24c7.91,18.59,14.54,37.81,23.58,55.82C1785.44,811.11,1796.57,838.7,1799.14,869.22z
	 M1612.31,676.61c-21.27,44.95-47.8,85.62-54.94,135.52c4.83-2.33,8.81-3.56,11.96-5.91c11.59-8.65,23.36-17.17,34.1-26.81
	c4.25-3.81,8.33-10.35,8.49-15.76C1612.75,735.25,1612.31,706.82,1612.31,676.61z M1414.22,812.87c0.58-0.63,1.16-1.26,1.74-1.89
	c-7.1-49.76-34.73-91.11-55.78-136.62c0.43,8.16,1.07,14.93,1.09,21.72c0.07,21.15,0.05,42.31-0.25,63.46
	c-0.13,9.14,3.92,15.9,10.54,21.54c4.69,4,9.27,8.17,14.23,11.81C1395.14,799.72,1404.73,806.23,1414.22,812.87z M1308,1747.59
	c5.19-10.06,10.26-19.36,14.76-28.92c1.57-3.33,2.69-7.41,2.37-11.01c-1.08-12.49-2.59-24.96-4.46-37.35
	c-4.75-31.52-10.2-62.93-14.57-94.5c-3.09-22.32-5.45-44.77-7.05-67.25c-1.06-14.9-0.2-29.94-0.2-46.33
	c-0.94,2.58-1.49,3.88-1.89,5.22c-7.76,26.56-9.77,53.65-6.28,80.99c3.29,25.71,7.02,51.39,11.44,76.93
	c4.75,27.51,10.13,54.96,10.12,82.94C1312.25,1721.05,1309.59,1733.77,1308,1747.59z M1665.63,1745.15
	c-4.29-18.54-6.15-37.06-3.3-55.89c4.15-27.31,7.99-54.66,12.51-81.91c4.82-29.02,9.91-57.97,9.37-87.54
	c-0.13-6.81-0.27-13.71-1.37-20.41c-2.16-13.1-5.01-26.08-7.57-39.12c-0.49,5.58-0.38,10.85-0.51,16.11
	c-0.35,14.73-0.07,29.53-1.37,44.18c-2.04,23.09-4.66,46.15-7.95,69.1c-5.01,34.92-10.88,69.71-16.19,104.59
	c-0.86,5.64-2,11.7-0.82,17.09C1651.21,1723.92,1657.45,1735.1,1665.63,1745.15z M1645.34,474.7c-14.03,17.05-32.9,27-52.75,35.07
	c5.05,10.08,9.61,19.44,14.45,28.64c0.75,1.42,2.89,3.11,4.27,3.02c9.29-0.62,18.72-0.92,27.77-2.87
	c7.19-1.54,11.98-6.93,13.45-14.68c2.14-11.25,4.55-22.44,6.62-33.7c0.25-1.34-0.47-3.36-1.46-4.34
	C1653.95,482.15,1649.91,478.76,1645.34,474.7z M1327.82,474.76c-4.41,4.03-8.55,7.34-12.03,11.24c-1.23,1.37-1.49,4.27-1.14,6.29
	c1.68,9.84,3.98,19.58,5.53,29.44c1.39,8.8,6.09,15.06,14.44,16.91c8.84,1.95,18.07,2.12,27.16,2.85c1.23,0.1,3.22-0.76,3.75-1.76
	c5.18-9.9,10.12-19.93,15.36-30.38C1359.9,502.1,1342.1,490.8,1327.82,474.76z M1564.6,814.18c21.29,10.99,41.98,21.68,62.69,32.38
	c10.78-20.47,4.34-59.85-13.4-76.57C1603.68,791.02,1583.5,800.91,1564.6,814.18z M1346.15,846.46
	c20.98-10.82,41.64-21.48,62.77-32.38c-19.82-13.02-39.11-23.93-50.05-44.66C1338.08,803.23,1336.14,817.59,1346.15,846.46z
	 M1541.6,1194.34c-3.82,19.09-7.04,36.41-10.83,53.61c-2.57,11.67-4.85,23.25-3.62,35.29c2.2,21.58,3.65,43.25,6.57,64.73
	c1.64,12.03,5.6,23.74,8.52,35.59c0.57-0.15,1.13-0.29,1.7-0.44c-0.34-6.52-1.15-13.06-0.94-19.56c0.65-20.02,1.49-40.05,2.64-60.05
	c0.69-12.1,2.26-24.15,3.15-36.24C1550.55,1243.14,1548.99,1219.31,1541.6,1194.34z M1430.69,1380.9
	c8.9-18.31,10.68-39.39,11.85-60.35c1.17-21.09,6.96-41.98,1.96-63.41c-4.72-20.23-8.29-40.73-12.53-61.94
	c-0.69,1.43-1.03,1.96-1.21,2.55c-8.81,29.63-6.95,59.85-4.86,90.06c1.47,21.22,3.42,42.41,4.69,63.64
	C1431.19,1361.61,1430.69,1371.85,1430.69,1380.9z M1233.2,707.84c9.47,1.89,10.46,1.43,14.99-7.08
	c11.55-21.7,19.4-44.86,26.17-68.37c2.74-9.52,4.52-19.34,6.38-29.1c0.32-1.7-1.13-3.74-1.77-5.63c-1.87,0.73-4.13,1.02-5.54,2.27
	c-2.65,2.35-5.21,4.99-7.11,7.96C1246.88,638.27,1236.86,671.78,1233.2,707.84z M1739.7,708.02c-0.17-3.58-0.01-7.22-0.57-10.74
	c-3.73-23.82-9.5-47.15-20.6-68.66c-5.31-10.28-12.49-19.61-19.08-29.2c-0.87-1.27-3.29-1.48-4.98-2.18
	c-0.57,1.71-1.59,3.41-1.61,5.12c-0.04,3.81-0.22,7.8,0.77,11.4c8.28,30.16,17.43,59.99,32.04,87.89
	C1728.98,707.96,1732.84,709.97,1739.7,708.02z M1179.9,747.13c4.38-3.87,9.66-7.9,14.16-12.68c6.27-6.66,12.68-13.39,17.62-21
	c3.31-5.1,6.79-12.38,5.6-17.64c-2.86-12.65-8.43-24.68-13.19-37.74C1185.17,685.82,1175.1,715.05,1179.9,747.13z M1769.11,658.15
	c-4.04,11.36-7.26,21.73-11.46,31.68c-2.28,5.39-2.46,10.31-0.37,15.4c7.53,18.26,23.54,29.45,35.6,44.08
	C1797.97,715.37,1788.78,685.9,1769.11,658.15z M1282.26,690.05c-6.1,4.86-11.46,10.21-17.81,13.88c-6.36,3.67-13.66,5.72-20.6,8.36
	c-3.1,1.18-5.02,2.66-4.46,6.52c1.95,13.68,5.77,26.61,14.24,37.79c1.18,1.56,2.67,2.89,3.33,3.59
	C1277.2,740.63,1286.73,717.75,1282.26,690.05z M1716.48,760.3c0.13-0.11,0.91-0.5,1.39-1.12c9.32-12.12,15.07-25.69,15.62-41.07
	c0.07-1.9-2.3-4.77-4.25-5.7c-7.43-3.57-15.57-5.84-22.64-9.96c-5.83-3.39-10.52-8.72-15.43-12.94
	C1686.16,717.72,1696.61,740.66,1716.48,760.3z M1607.95,409.14c9.58,7.13,20.92,15.55,32.59,24.23
	c6.52-30.98,28.47-46.58,58.45-54.92c-5.96-4.19-12.01-7.37-18.23-10.14c-1.13-0.5-3.15,0.4-4.52,1.11
	c-6.33,3.31-12.66,6.63-18.78,10.29c-1.84,1.1-4.03,3.14-4.33,5.03c-1.23,7.56-4.66,13.95-11.8,16.2
	C1629.91,404.56,1618.05,406.73,1607.95,409.14z M1367.43,407.93c-4.02-0.37-8.24-0.69-12.44-1.18c-4.21-0.49-8.44-1.01-12.61-1.76
	c-13.12-2.37-18.97-8.34-21.94-21.18c-0.41-1.78-3.27-3.23-5.26-4.38c-5.65-3.27-11.4-6.34-17.17-9.4
	c-1.58-0.84-3.57-2.24-4.98-1.87c-7,1.83-13.65,4.49-18.21,11.54c14.3,3.31,26.95,8.86,37.87,18.33
	c10.92,9.47,16.76,21.84,20.69,34.58C1345.12,424.1,1356.26,416.02,1367.43,407.93z M1738.81,714.45c-0.53,1.58-0.94,2.31-1.02,3.07
	c-1.7,16.68-6.92,31.95-17.81,45c-0.73,0.87-1.47,2.6-1.09,3.39c3.37,6.94,6.99,13.76,10.74,21.02
	C1745.1,764.7,1749.38,726.9,1738.81,714.45z M1243.8,786.27c3.41-6.24,6.97-12.24,9.93-18.52c0.73-1.55,0.17-4.59-0.97-6.01
	c-7.06-8.78-12-18.53-14.39-29.53c-1.23-5.68-2.26-11.4-3.42-17.32C1224.15,722.84,1227.99,766.45,1243.8,786.27z M1369.56,539.1
	c0.39,0.56,0.79,1.12,1.18,1.68c7.11-1.61,14.24-3.15,21.31-4.96c0.67-0.17,1.37-2.09,1.26-3.12c-1.02-9.52-2.21-19.02-3.51-29.85
	C1382.73,515.51,1376.14,527.31,1369.56,539.1z M1583.58,502.76c-1.36,11.14-2.56,20.57-3.57,30.01c-0.11,1,0.79,2.88,1.55,3.07
	c6.95,1.74,13.97,3.2,20.98,4.74c0.38-0.65,0.76-1.3,1.14-1.95C1597.18,527.04,1590.68,515.44,1583.58,502.76z M1753.28,1157.55
	c8.38-8.17,16.65-16.12,24.79-24.2c8.02-7.96,8.88-10.28,8.75-21.45c-8.1,13.86-20.01,24.26-31.85,34.66
	C1751.32,1149.75,1748.85,1152.57,1753.28,1157.55z M1185.81,1113.37c0.27,7.92,3.93,15.37,10.94,21.45
	c8.17,7.08,15.97,14.59,24.06,22.04c0.55-1.3,1.49-3.52,1.95-4.62C1209.74,1138.53,1197.47,1125.63,1185.81,1113.37z
	 M1366.88,1705.7c-3.76,19.13-3.69,42.38,2.63,65.73c2.01-5.02,4.18-10.33,3.69-15.37
	C1371.4,1737.91,1368.71,1719.85,1366.88,1705.7z M1604.96,1773.05c5.01-26.16,5.1-50.74-0.1-75.3c1.79,18.57,0.45,36.96-4.44,54.94
	C1598.41,1760.12,1600.67,1765.77,1604.96,1773.05z M1779.49,1140.65c-1.45,0.79-1.87,0.92-2.15,1.2
	c-3.77,3.76-7.56,7.51-11.28,11.32c-5.55,5.69-4.76,11.75,2.57,17.07C1772.16,1160.63,1775.63,1151.17,1779.49,1140.65z
	 M1205.07,1170.61c6.16-6.77,7.1-12.44,3.11-16.67c-4.51-4.78-9.27-9.32-15.02-15.05
	C1197.39,1150.16,1201.1,1160.04,1205.07,1170.61z M1487.89,1010.97c-0.92-0.02-1.85-0.03-2.77-0.05c0,12.99,0,25.97,0,38.96
	c0.92,0,1.85,0,2.77,0C1487.89,1036.91,1487.89,1023.94,1487.89,1010.97z M518.95,883.66c0-23.07,0.26-46.15-0.11-69.22
	c-0.19-11.48-1.75-22.92-2.24-34.4c-0.18-4.18,0.54-8.52,1.55-12.62c1.95-7.88,8.82-13.17,17.13-13.94
	c15.92-1.49,28.75,5.84,41.45,14.04c16.14,10.43,17.87,26.22,14.56,42.46c-4.82,23.69-10.69,47.25-17.7,70.38
	c-6.64,21.91-20.24,38.16-43.79,44.08c-5.13,1.29-7.29-0.59-8.16-5.09c-0.6-3.12-1.19-6.29-1.25-9.45
	c-0.17-8.75-0.06-17.5-0.06-26.25C519.88,883.66,519.42,883.66,518.95,883.66z M588.4,799.29c-1.72-5.71-2.88-13.18-6.14-19.58
	c-6.85-13.42-19.9-17.68-33.68-20.23c-20.97-3.89-27.84,7.62-27.44,23.29c0.84,32.89,1.72,65.77,2.66,98.65
	c0.27,9.6,0.71,19.2,1.23,28.79c0.46,8.34,4.65,11.21,12.42,7.76c9.47-4.2,17.92-10.24,23.31-19.3
	C578.66,868.63,582.45,834.68,588.4,799.29z M508.47,784.68c-0.92,43.1-1.58,86.22-2.96,129.31c-0.32,10.07-1.94,13.21-12.94,9.51
	c-19.84-6.69-32.97-20.7-38.79-40.26c-7.39-24.8-13.74-49.98-19.14-75.29c-4.41-20.66,3.15-35.21,22.22-44.82
	c8.76-4.42,18.41-8.09,28.04-9.55c15.06-2.28,24.14,6.75,24.66,22.15c0.1,2.99,0.01,5.99,0.01,8.98
	C509.2,784.69,508.83,784.69,508.47,784.68z M505.11,802.22c-0.06,0-0.13,0-0.19,0c0-7.49,0-14.98,0-22.46
	c0-0.86,0.09-1.73-0.05-2.57c-1.8-10.7-4.85-17.38-15.68-17.77c-8.44-0.31-17.42,1.26-25.39,4.14
	c-17.6,6.37-25.31,18.11-24.72,36.78c0.31,9.72,2.08,19.44,3.79,29.05c4.08,22.89,9.34,45.45,20.61,66.12
	c5.99,10.98,15.4,18.15,26.55,22.94c6.87,2.95,10.67-0.03,11.03-7.35c0.39-7.89,0.92-15.78,1.2-23.67
	C503.26,859.02,504.17,830.62,505.11,802.22z M564.02,694.64c-9.9-3.8-19.7-7.94-29.74-11.31c-9.39-3.15-14.99-8.77-14.62-18.33
	c0.51-12.95,1.84-25.89,3.41-38.76c0.85-6.99,5.18-10.06,12.44-10.17c15.97-0.25,28.8,7.89,40.18,17.36
	c18.19,15.13,24.15,35.43,19.94,58.62c-1.49,8.21-6.99,11.34-15.03,8.89c-4.46-1.36-8.83-3.02-13.24-4.55
	C566.25,695.8,565.14,695.22,564.02,694.64z M523.76,658.06c0.46,13.53,3.77,19.82,16.91,23.28c7.14,1.88,13.96,5.04,20.87,7.73
	c5.53,2.16,10.85,4.95,16.52,6.63c7.6,2.26,12.48-0.6,14.13-8.31c2.9-13.56-0.4-26.52-7.21-37.95
	c-9.64-16.19-25.45-24.8-43.17-29.63c-8.67-2.36-13.68,0.67-15.4,9.75C524.64,638.89,524.57,648.55,523.76,658.06z M456.56,697.43
	c-3.65,1.17-7.27,2.41-10.95,3.49c-7.96,2.33-12.99-0.48-15.01-8.28c-5.9-22.74,5.36-51.04,25.5-63.56
	c9.58-5.96,19.18-12.26,30.89-12.92c12.13-0.68,16.18,3,17.35,15.12c1,10.39,1.79,20.79,2.61,31.2c0.8,10.15-5.21,17.87-14.88,21.09
	c-11.05,3.68-21.78,8.28-32.66,12.48C458.46,696.49,457.51,696.96,456.56,697.43z M502.32,656.52c-0.44-7.89-0.65-15.79-1.38-23.65
	c-1-10.69-7.34-16.29-16.67-12.8c-11.02,4.12-22.05,9.33-31.55,16.19c-14.77,10.66-19.22,27.43-19.69,44.64
	c-0.33,11.94,5.97,19.98,20.37,13.22c9.98-4.68,20.28-8.79,30.7-12.37C499.79,676.35,502.41,673.18,502.32,656.52z M507.03,576.9
	c-0.34,17.3-12.29,30.39-30.63,38.95c-9.28,4.33-18.56,8.63-27.81,13.01c-10.49,4.97-16.96,2.11-17.76-9.42
	c-0.64-9.22-0.07-18.85,1.97-27.84c2.98-13.17,13.59-20.05,25.26-25.12c7.79-3.38,15.7-6.49,23.58-9.66
	c2.16-0.87,4.35-1.88,6.62-2.23C501.7,552.5,507.11,557.82,507.03,576.9z M502.35,573.9c0-2.84,0.03-4.34-0.01-5.83
	c-0.2-8.04-2.54-10.41-10.31-10.16c-2.31,0.08-4.78,0.28-6.86,1.17c-8.41,3.58-16.57,7.76-25.05,11.14
	c-17.8,7.09-27.73,20.47-25.14,42.27c1.11,9.38,5.96,13.85,14.52,10.42c11.77-4.72,22.98-10.89,34.28-16.72
	C497.39,599.18,503.12,587.61,502.35,573.9z M596.09,609.97c-0.47,4.43-0.57,8.94-1.51,13.27c-1.41,6.5-6.55,10.25-12.23,7.46
	c-16.75-8.21-35.14-13.46-49.46-26.22c-11.08-9.88-14.59-22.76-13.72-36.99c0.67-10.98,8.64-16.53,20.05-12.49
	c13.76,4.88,27.33,10.77,40.11,17.81C593.56,580.67,596.17,594.92,596.09,609.97z M523.7,572.31c0.22,10.45,1.35,20.77,10.24,27.8
	c13.11,10.37,27.41,18.84,43.62,23.44c7.13,2.02,12.09-1.61,13.46-8.86c3.38-17.88-2.54-32.36-18.39-40.95
	c-11.16-6.04-23-11.03-34.97-15.29c-8.85-3.15-13.71,1.25-13.95,10.66C523.68,570.17,523.7,571.24,523.7,572.31z M456.56,697.43
	c0.95-0.47,1.9-0.93,2.86-1.4c9.85-2.22,19.6-5.24,29.57-6.4c8.52-0.99,15.46,4.67,16.64,13.38c1.38,10.21,1.22,20.63,1.46,30.97
	c0.11,4.57-2.6,7.53-6.84,9c-9.62,3.33-19.22,6.7-28.89,9.88c-7.23,2.38-14.41,5.56-21.85,6.45c-11.09,1.33-18.09-5.32-19.02-16.56
	c-1.45-17.48,5.77-30.94,19.76-41.06C452.3,700.2,454.45,698.84,456.56,697.43z M504.14,718.91c-0.48-2.96-0.6-7.34-1.95-11.3
	c-2.91-8.54-6.5-14.81-17.7-13.66c-10.73,1.1-21.06,3.29-30.26,9.08c-14.73,9.26-22.75,27.1-19.21,42.02
	c2.32,9.79,8.23,13.19,18.06,10.07c11.54-3.67,22.8-8.39,34.54-11.18C501.87,740.53,503.68,730.51,504.14,718.91z M564.02,694.64
	c1.11,0.58,2.23,1.16,3.34,1.74c16.38,8.48,27.2,20.91,28.61,40.09c1.3,17.71-9.55,26.82-26.35,21.66
	c-13.4-4.11-26.67-8.66-39.9-13.28c-6.97-2.43-11.62-6.7-10.99-15.14c0.55-7.42-0.26-14.96,0.49-22.35
	c1.44-14.15,12.83-21.09,28.3-17.55C553.1,691.09,558.53,693.01,564.02,694.64z M522.22,719.54c0.08,0.01,0.15,0.01,0.23,0.02
	c0,1.92-0.23,3.88,0.04,5.77c0.99,6.94,2.72,13.84,10.16,16.48c13.83,4.91,27.8,9.47,41.83,13.8c8.33,2.57,14.11-1.07,16.57-9.35
	c2.3-7.75,1.35-15.16-1.8-22.42c-7.58-17.5-21.56-25.82-39.85-28.97c-16.36-2.82-22.63,0.54-26.44,16.43
	C522.32,713.95,522.45,716.79,522.22,719.54z M678.44,1390.71c-1.22,1.54-2.48,3.04-3.65,4.61c-6.21,8.38-12.4,16.77-18.6,25.16
	c-2.92,3.96-6.34,4.48-10.51,1.82c-9.16-5.82-18.5-11.37-27.58-17.3c-6.96-4.54-13.64-9.51-20.44-14.28
	c-0.45,0.57-0.89,1.14-1.34,1.71c5.89,4.99,11.46,10.44,17.75,14.86c10.24,7.19,20.8,13.98,31.6,20.3c2.48,1.45,7.43,1.7,9.6,0.17
	c12.59-8.85,19.27-22.02,25.25-35.53C679.83,1391.74,679.13,1391.22,678.44,1390.71z M345.61,1392.23
	c5,11.68,11.34,22.55,20.33,31.75c6.08,6.23,10.6,7.14,18.19,2.41c9.72-6.05,19.11-12.65,28.36-19.41
	c6.01-4.4,11.51-9.5,17.24-14.28c-0.41-0.52-0.82-1.05-1.23-1.57c-1.67,1.1-3.34,2.22-5.02,3.31
	c-14.46,9.35-28.94,18.66-43.37,28.04c-3.71,2.41-6.88,1.93-9.48-1.52c-6.14-8.14-12.15-16.36-18.28-24.51
	c-1.51-2.01-3.25-3.85-4.89-5.77C346.84,1391.2,346.22,1391.71,345.61,1392.23z M530.94,181.48c5.18-14.8,24.47-14.86,34.53-7.86
	c1.23,0.86,1.98,4.66,1.15,5.84C560.21,188.65,539.17,189.66,530.94,181.48z M556.91,181.4c2.22-1.51,3.98-2.7,6.74-4.57
	c-3.23-1.34-5.16-2.15-7.55-3.14C556.41,176.6,556.6,178.43,556.91,181.4z M473.66,168.82c9.8,0.67,16.49,2.53,20.06,9.65
	c0.68,1.36,0.1,4.58-1.02,5.41c-8.11,5.96-26.25,3.59-32.23-4.26c-0.9-1.19-0.32-5.34,0.72-5.87
	C465.81,171.4,470.86,169.87,473.66,168.82z M469.83,173.76c-2.54,1.36-4.37,2.34-7.26,3.88c3.11,1.55,4.91,2.45,7.26,3.63
	C469.83,178.68,469.83,176.84,469.83,173.76z M497.6,224.24c10.79,6.21,20.09,5.75,29.3,0C517.61,224.24,508.32,224.24,497.6,224.24
	z M518.68,252.32c6.98-0.31,13.96-0.62,20.95-0.93c-0.08-1.16-0.17-2.32-0.25-3.48c-6.92,0.73-13.85,1.47-20.77,2.2
	C518.63,250.85,518.66,251.58,518.68,252.32z M507.43,250.16c-7-0.69-14.01-1.37-21.01-2.06c-0.05,0.97-0.11,1.94-0.16,2.91
	c7.08,0,14.16,0,21.24,0C507.47,250.73,507.45,250.44,507.43,250.16z"/>
<path class="st0" d="M504.87,504.1c0,0-76.84,33.48-156.19,20.32"/>
<path class="st0" d="M523.82,504.1c0,0,74.93,33.79,154.28,20.63"/>
<path class="st0" d="M509.71,452.23c0,0-87.54,4.26-174.77,18.39"/>
<path class="st0" d="M515.86,452.23c0,0,88.61,4.26,175.85,18.39"/>
<path class="st1" d="M436.29,795.97c0,0,28.06,5.16,70,0.65"/>
<path class="st1" d="M443.71,840.61c0,0,24.09,8.39,61.4,0"/>
<path class="st1" d="M453.77,877.26c0,0,17,9.68,51.34,0"/>
<path class="st1" d="M519.63,795.2c0,0,28.06,5.16,70,0.65"/>
<path class="st1" d="M520.94,840.19c0,0,24.76,8.81,62.06,0.42"/>
<path class="st1" d="M521.62,877.26c0,0,17,9.68,51.34,0"/>
</svg>
